<?xml version="1.0" encoding="utf-8"?>
<!-- Generator: Adobe Illustrator 26.1.0, SVG Export Plug-In . SVG Version: 6.00 Build 0)  -->
<svg version="1.1" id="Layer_1" xmlns="http://www.w3.org/2000/svg" xmlns:xlink="http://www.w3.org/1999/xlink" x="0px" y="0px"
	 viewBox="0 0 60 60" style="enable-background:new 0 0 60 60;" xml:space="preserve">
<style type="text/css">
	.st0{fill:#FFFFFF;stroke:#0D3C54;stroke-width:2;stroke-linecap:round;stroke-linejoin:round;stroke-miterlimit:10;}
	.st1{fill:#FFFFFF;}
	.st2{fill:none;stroke:#0D3C54;stroke-width:2;stroke-miterlimit:10;}
	.st3{fill:none;stroke:#0D3C54;stroke-width:2;stroke-miterlimit:10;stroke-dasharray:1.9745,1.9745;}
	.st4{fill:none;stroke:#0D3C54;stroke-width:2;stroke-miterlimit:10;stroke-dasharray:2.1072,2.1072;}
	.st5{fill:#4BA3E3;}
	.st6{fill:#FFFFFF;stroke:#0D3C54;stroke-width:2;stroke-miterlimit:10;}
</style>
<path class="st0" d="M27.14,7.74c-13.85,0-25.18,11.33-25.18,25.18c0,13.85,11.33,25.18,25.18,25.18c7.27,0,13.85-3.08,18.32-7.98
	l-18.32-17.2V7.74z"/>
<g>
	<g>
		<path class="st1" d="M57.96,27.28c0-13.85-11.33-25.18-25.18-25.18v25.18H57.96z"/>
		<g>
			<path class="st2" d="M56.96,27.28h1c0-0.33-0.01-0.67-0.02-1"/>
			<path class="st3" d="M57.78,24.31C56.38,12.49,46.71,3.12,34.77,2.18"/>
			<path class="st2" d="M33.78,2.12c-0.33-0.01-0.67-0.02-1-0.02v1"/>
			<line class="st4" x1="32.78" y1="5.2" x2="32.78" y2="25.22"/>
			<polyline class="st2" points="32.78,26.28 32.78,27.28 33.78,27.28 			"/>
			<line class="st4" x1="35.89" y1="27.28" x2="55.9" y2="27.28"/>
		</g>
	</g>
</g>
<path class="st5" d="M54.75,25.06c0-10.87-8.89-19.75-19.75-19.75v19.75H54.75z"/>
<path class="st0" d="M27.14,32.92l18.32,17.2c4.2-4.48,6.86-10.49,6.86-17.2H27.14z"/>
<g>
	<line class="st6" x1="43.69" y1="12.02" x2="43.69" y2="15.34"/>
	<line class="st6" x1="38.75" y1="16.67" x2="42.07" y2="16.67"/>
	<line class="st6" x1="43.69" y1="21.47" x2="43.69" y2="18.16"/>
	<line class="st6" x1="48.63" y1="16.83" x2="45.31" y2="16.83"/>
</g>
</svg>
