<?xml version="1.0" encoding="utf-8"?>
<!-- Generator: Adobe Illustrator 26.1.0, SVG Export Plug-In . SVG Version: 6.00 Build 0)  -->
<svg version="1.1" id="Layer_1" xmlns="http://www.w3.org/2000/svg" xmlns:xlink="http://www.w3.org/1999/xlink" x="0px" y="0px"
	 viewBox="0 0 598 496" style="enable-background:new 0 0 598 496;" xml:space="preserve">
<style type="text/css">
	.st0{fill:#95CFE8;}
	.st1{fill:#AED7E8;}
	.st2{fill:#1360C5;}
	.st3{fill:#27456C;}
	.st4{fill:#183D6E;}
	.st5{fill:#85B8CF;}
	.st6{fill:#EBF5F8;}
	.st7{fill:#ED904A;}
	.st8{fill:#BA682D;}
	.st9{fill:#B0520E;}
	.st10{fill:#D7EDF7;}
	.st11{fill:#C3E7F7;}
	.st12{fill:#F0FBFF;}
	.st13{fill:#166FE3;}
	.st14{fill:#FFFFFF;}
</style>
<g>
	<path class="st0" d="M192.07,266.41c-36.09-18.42-64.18-58.36-59.53-99.75c4.83-42.98,40.84-73.89,74.11-100.05
		c17.1-13.45,39.79-21.61,59.33-30.84c19.54-9.23,41.81-13.88,62.68-8.65c21.03,5.27,38.76,19.99,53.26,36.62
		s30.53,33.51,44.85,50.31c12.29,14.43,22.45,29.65,30.32,47.07c15.84,35.06-5.18,74.03-34.78,97.67
		c-31.88,25.46-70.99,27.53-109.36,23.73C270.9,278.37,231.98,286.79,192.07,266.41z"/>
	<path class="st1" d="M249.44,151.99c0,0-36.19-0.03-71.16-61.64c-4.72,4.34-9.3,8.83-13.61,13.49
		c-2.39,22.62-10.8,50.24-32.3,79.14c0.71,8.05,2.57,15.94,5.4,23.52c20.9,4.78,51.03,20.23,72.54,67.38
		c2.01,0.64,4.03,1.22,6.04,1.74C211.23,237.86,210.59,178.73,249.44,151.99z"/>
	<g>
		<path class="st1" d="M404.6,244.49c0.04,0.15,0.06,0.23,0.06,0.23C404.64,244.64,404.62,244.57,404.6,244.49z"/>
		<path class="st1" d="M415.83,101.51c-11.25-12.64-23.01-25.27-33.9-37.77c-10.14-11.64-21.87-22.34-35.21-29.52
			c-2.1,28.93-13.8,67.08-51.52,105.79c0,0,77.27-13.22,109.39,104.48C403.2,239.39,379.03,148.89,415.83,101.51z"/>
	</g>
	<path class="st2" d="M283.72,64.58c-40.95,5.03-69.31,20.47-90.89,43.64c-21.58,23.17-23.33,34.86-20.41,54.09
		c2.92,19.23,27.77-12.14,37.21-13.95c9.44-1.81,24.73,11.6,30.2,30.26c5.48,18.66,7.39,56.06,7.39,56.06h105.38
		c0,0-5.42-78.31,18.08-86.33c20.1-6.86,37.34,36.27,52.5,29.25c15.16-7.02,4.5-59.15-35.37-87.09S314.64,60.78,283.72,64.58z"/>
	<path class="st3" d="M416.1,142.18c0.24,0.03-1.09,0.57-1.07,1.21c0.09-0.21,0.09-0.23,0-0.07c0.21-0.52,0.12-0.55-0.26-0.09
		c-0.01-0.72,0.35-0.07,0.25-0.88c-0.7-0.43-6.88,0.44-7.58,0.95c-0.09-0.48-0.1-0.46-0.04,0.05c-1.12-0.34-13.53,2.15-10.84,5.16
		c-0.51-0.66-0.67-0.36-0.8-0.57c0.01-0.04-1.18,1.85-0.45,1.8c-0.16-1.04-2.59,2.38-3.08,2.73c-0.07-1.02-0.4,0.22-0.34,0.21
		c-0.26-0.31-0.05-0.13-0.72-0.39c0.15-0.14,0.13,0.85,0.12,0.79c-0.32-1.12-0.57-0.21-0.81-0.64c-0.08,0.31-0.06,0.85-0.18,1.42
		c-0.45-0.38-0.59-0.2-0.7-0.6c0.04,0.58-0.01,0.61-0.14,0.07c0.09-0.27,0.04,1.29-0.04,0.33c0.02,0.09,1.38,1.11,1.14-0.31
		c0.68,0.32,1.52-0.12,2.34-0.25c0.41-0.39,0.31-0.77-0.3-1.15c0.15,0.44,0.24,0.54,0.28,0.3c0.47,0.59,0.44,0.36,0.71-0.21
		c1.75-0.88,2-0.45,2.05-2.03c0.48-0.17,0.39,0.51,0.54,0.6c-0.17-0.18-0.07-0.18,0.28,0.01c-0.01-0.04-0.16-0.63-0.04-0.88
		c0.41,0.17,0.7,0.49,1,0.51c-0.11-0.65,0.03,0.3-0.43-0.73c0.22,0.09,0.56,0.26,0.59,0.39c0.21,0.07-0.24-0.76-0.2-1.08
		c0.34,0.33,1,0.53,0.71-0.19c-0.04,0.39-0.24,0.02-0.47-0.16c0.66,0.44,2.03-0.84,1.38-1.42c0.79,0.68,1.69-0.58,1.98-1.05
		c0.17,0.58,0.18,0.54,0.02-0.12c0.24,0.32,0.28,0.63,0.51,0.68c0.37-0.31,0.71-1.95,0.55-0.25c0.66-0.2-0.61-0.57,0.28-0.78
		c0.26,0.99,1.73,0.81,1.4-0.09c0.4,0.36,0.19,0.64,0.53,1.05c-0.35-1.15,5.1-1.21,5.93-0.95c0.39,0.04,3.03-2.3,2.54-0.15
		c0.82-1.95,0.28-0.49,0.36-0.41c0.15,0.15,0.56,0.4,0.35-0.33c-0.03-0.06-0.12,0.36,0.03-0.53c0.05,0.29,4.46,0.94,4.92,1.06
		c0.38-0.24,0.39-2.26,0.37-2.32c-0.55,0.17-0.03,0.28-0.07,0.04c-0.18,0.17-0.25,0.11-0.19-0.18c-0.69,0.19,0.25-0.04-0.27,0.54
		c-0.11-0.67-1.4-0.96-1.71-0.07C416.29,142.01,416.74,143.16,416.1,142.18z"/>
	<path class="st4" d="M152.96,233.69c10.46,13.67,24.09,25.06,39.1,32.72c39.92,20.38,78.83,11.96,120.89,16.11
		c38.37,3.79,77.48,1.73,109.36-23.73c8.6-6.86,16.01-15.48,21.82-25.1H152.96z"/>
	<path class="st0" d="M329.41,257.16c0,4.14-17.97,7.49-40.13,7.49c-22.16,0-40.13-3.35-40.13-7.49v-8.11h80.26V257.16z"/>
	<ellipse class="st5" cx="289.28" cy="249.05" rx="40.13" ry="7.49"/>
	<polygon class="st5" points="257.44,97.28 267.04,134.8 283.72,162.32 301.63,163.7 317.71,123.39 317.71,90.52 	"/>
	<path class="st2" d="M253.8,60.78c0,0-17.06,27.82-13.47,59.02c0,0,12.51-2.21,19.92,0c0,0-11.37,13.25-13.02,16.29
		c0,0,23.83,17.67,36.49,26.23c0,0-17.28-40.49-21.94-63.5C257.11,75.8,253.8,60.78,253.8,60.78z"/>
	<path class="st3" d="M246.73,71.2c-0.12,0.28-0.83,4.6-0.49,4.61c0.25-0.57,0.05,0.18-0.55,1.07c-0.5-0.06,0.04-1.18,0.07-1.07
		c-0.19-0.03-0.38-0.08-0.56-0.15c-2.9,5.37-9.19,28.42-6.17,33.35c-0.15,1.27-1.1,8.99,0.45,9.96c0.45,1.71,17.09,3.41,18.3,1.54
		c-0.68,0.27-0.71,0.33-0.11,0.18c-0.27,2.48-7.41,9.06-9.4,12.31c0.13-0.44,0.24-0.89,0.32-1.34c-1.29,2.52-3.58,4.86-1.38,5.87
		c1.54,1.03,5.53,3.63,7.64,5.12c0.53,0.22,3.41,1.66,4.99,3.33c-0.19,0.05-0.38,0.1-0.57,0.13c3.64,2.29,6.32,4.36,9.6,6.75
		c2.61,0.61,2.39,3.16,5.66,3.16c0.35,0,6.45,5.86,7.21,5.4c-3-2.6-8.62-7.78-13.59-9.74c0.67-1.4-0.67-1.17-2.28-2.47
		c-0.9-0.66-4.41-3.57-4.13-3.35c-2.13-2.19-3.46-2.77-6.39-4.05c-0.95-0.85,0.54-0.55,0.52-0.62c-1.1-0.57-5.3-4.39-5.46-3.98
		c0.23,0.11,0.46,0.12,0.7,0.02c-0.99-0.34-1.97-0.68-2.77-1.03c0.37,0.05,0.37-0.05,0.01-0.3c1.11-0.92,0.81-0.02,0.95-1.23
		c-0.4,0.82-0.22,0.46-0.9,0.51c5.26-1.28,6.9-12.79,13.04-15.6c-0.06,0.08-0.93,0.04-1.06,0.02c-0.16-0.7,0.11-0.84,0.8-0.41
		c0.44-0.72-8.93-0.03-4.99-1.14c-4.61-0.76-11.85-1.06-14.84,0.45c-2.06-1.17,0.15-18.48,1.18-20.77
		c0.63-3.09-0.48-10.08,1.88-12.57c-0.55-0.09,0.68,1.35,0.57,1.12c-0.1-0.47,0.36-3.47,0.21-3.36c0.05-0.05-0.31,1.35-0.21,0.95
		c-0.47-1.3,1.54-4.2,1.43-4.4c0.02-2.79,5.17-17.47,7.78-18.43c1.11-1.63-7.75,8.08-6.46,8.17
		C249.06,69.69,246.44,71.39,246.73,71.2z"/>
	<path class="st2" d="M319.85,64.58c0,0-8.01,76.48-18.22,99.12c0,0,23.19-18.5,39.2-37l-17.36-10.77c0,0,4.27-2.76,23.24-1.79
		c0,0,1.56-26.03-9.19-48.18L319.85,64.58z"/>
	<path class="st3" d="M312.24,157.04c0.22-0.19,2.79-3.71,2.5-3.86c-0.53,0.42,0.15-0.25,0.99-0.68c0.4,0.29-0.59,1.01-0.56,0.91
		c0.16,0.12,0.3,0.25,0.43,0.39c3.68-2.47,7.25-10.71,12.32-12.31c4.24-3.29,10.83-8.34,11.37-11.8c0.92-0.84,3.97-1.38,2.73-3.99
		c-0.41-0.86-6.38-2.92-6.16-3c-1.56-0.55-8.85-5.59-9.36-6.37c2.59-0.24,21.27,0.17,21.16-3.46c0.16,0.79,0.31,1.58,0.46,2.38
		c-0.08-1.81-0.05-6.5-0.19-6.86c-0.17-1.69-0.62-6.51-0.91-8.89c-0.19-0.58-1.02-3.62-0.96-5.96c0.17,0.1,0.34,0.21,0.5,0.32
		c-0.92-4.11-1.38-7.76-2.38-11.57c-1.59-2.09,0.11-4.07-2.48-6.02c-0.29-0.23-1.84-8.52-2.96-8.53c1.28,3.7,2.83,11.23,5.21,15.92
		c-1.43,0.63-0.27,1.32,0.06,3.36c0.21,1.15,0.67,5.57,0.64,5.26c-0.07,3.02,0.44,4.38,1.41,7.4c-0.01,1.28-0.77-0.04-0.81,0.03
		c0.31,1.22,0.1,6.8,0.47,6.69c-0.06-0.25-0.2-0.43-0.42-0.56c0.79,2.16-0.5,4.14,0.56,6.09c0.19-0.1,0.02-0.97,0.08-1.22
		c0.49,0.74-0.95,2.11-0.11,2.5c-1.57-2.36-19.36,0.78-21.39,1.98c0.18-0.47,0.51-0.8,0.99-0.99c-1.02,0.18-2.1,0.68-3.26,1.55
		c2.29,2.5,6.64,4.8,6.79,4.99c12.1,2.34,9.53,10.45,0.55,15.66c-2.45,2.27-5.23,8.58-8.58,9.52c0.43,0.36,0.12-1.52,0.1-1.26
		c-0.17,0.45-2.12,2.81-1.93,2.79c-0.08,0.02,0.98-1.02,0.67-0.72c-0.26,1.35-3.45,2.89-3.44,3.12
		c-1.42,2.43-12.33,13.43-14.99,13.45c-1.51,1.08,10.06-4.41,9.14-4.93C309.5,157.38,312.58,157.01,312.24,157.04z"/>
	<path class="st6" d="M343.08,130.73c-1,1.57,3.5,6.01,4.24,7.6c-0.27-0.16-0.56-0.18-0.88-0.06c-0.05-0.04,3.09,3,3.14,2.98
		c0.41,0.64,7.31,1.46,7.76,1.09c0.16-0.3,0.69-0.28,0.89-0.48c-0.1-0.35-0.85,1.9,0.28-0.14c-1.6,1.01-1.34,2.66-1.44,2.75
		c-0.23-0.05-0.12,0.15-0.33,0.48c-0.14,0.46-0.56-0.67-0.54-0.6c0.13,0.38-0.01,0.58-0.43,0.6c0.49,1.13-0.22,1.04-0.24,1.33
		c-0.26,1.4-0.9,5.14-0.53,5.72c0.29-0.48,0.4-0.39,0.35,0.3c1.12-2.26,2.72-12.06,7.75-13.59c0.04,0.14-0.75,0.41-0.4,0.07
		c-0.39,0.12-0.4,0.12-0.03,0.01c-2.94,2.46-10.87,1.72-13.6-2.21c-1.39-1.99-2.19-13.04-1.35-13.29c-0.54,0.08-1.8-0.12-1.74-0.68
		c-1.73,1.61-4.44,3.98-6.49,5.49c-4.81,4.96-12.5,5.51-18.25-1.13c0.08,0.04,0.11,5.57,2.35,7.36c5.72,4.57,15.11,0.03,19.66-4.25
		c-0.06,0.23,0.02,0.07-0.02,0.2c-0.01,0.02,0.11-0.4,0.12-0.39c0.06,0.08,0.25-0.56-0.16,0.54c0.66-1.35,0.19-0.25,0.07-0.03
		c0.19-0.35,0.38-0.71,0.58-1.06c-0.2,0.1-0.28,0.56-0.35,0.67c0.09-0.15,0.24-0.31,0.34-0.47c-0.12,0.2-0.69,1.11-0.11,0.18
		c-0.15,0.24-0.3,0.48-0.45,0.72C343.59,129.9,343.71,129.76,343.08,130.73z"/>
	<path class="st4" d="M329.24,88.84c0,0,10.39-8.16,9.65-25.23c-0.74-17.07-7.42-19.79-12.12-19.79c0,0,1.48-10.14-7.42-21.03
		c-8.91-10.89-24.62-9.16-32.23-5.44c-7.61,3.71-16.27,7.92-25.67,4.21s-18.31-9.65-22.76-2.47c-4.45,7.18,0.74,18.84,6.93,21.42
		c0,0-0.12,2.58-8.6,1.1c-8.48-1.48-10.54,4.89-6.5,11.13c5.44,8.41,14.14,13.11,22.29,14.6C260.94,68.81,329.24,88.84,329.24,88.84
		z"/>
	<path class="st7" d="M276.13,41.42c-23.2,4.39-24.49,28.13-22.83,45.01c1.65,16.88,18.29,44.48,35.61,43.49
		c17.32-0.99,27.96-18.06,28.7-31.42c0.74-13.36,1.24-31.42-4.21-44.29C307.96,41.34,290.07,38.79,276.13,41.42z"/>
	<path class="st3" d="M285.58,71.99c-0.19,0.07,0.08-0.66-0.25-1.29c0.07,0.21,0.08,0.23,0.03,0.06c0.15,0.5,0.19,0.51,0.13,0.02
		c0.28,0.57-0.04,0.22,0.31,0.84c-0.54-0.35,0.4-0.26,0.1-0.71c-0.12,0.02,0.47-0.06,0.81,0.39c-0.11,0.08,0.35-0.49,0.25-0.74
		c0.68,0.17,0.32-0.11,0.65,0.5c-0.16-0.16,0.15-0.5,0.07-0.48c0.26,0.51,0.08,0.14,0.39,0.57c0.32-0.06,0.41-0.28,0.27-0.65
		c-0.03,0.49-0.02,0.47,0.02-0.04c0.08,0.12-0.01,0.6-0.02,0.69c0.09-0.04,0.12-0.01,0.08,0.09c0.21,0.04,0.52-0.61,0.54-0.67
		c-0.16,0.93,0.16,0.18,0.24-0.05c-0.36,0.49,2.94,2.5,3.8,1.64c-0.61,0.59-0.42,0.59-0.61,0.75c0.06-0.02,1.02-0.38,0.36,0.26
		c0.24-0.11,0.68-0.08,0.82-0.48c-0.43,0.21-0.02,0.29,0.04,0.17c-0.65,0.68,0.53-0.04-0.24,0.73c1.08,0.23,0.41,0.05,0.83,0.76
		c0.08-0.01,0.66-0.35,0.67-0.34c-1.1,0.42-0.17,0.32-0.02,0.14c-0.17,0.1-0.14,0.11,0.1,0.02c-0.14,0.11-0.39,0.1-0.5,0.56
		c-0.06-0.09,0.65-0.28,0.68-0.29c-0.26,0.14-0.5,0.31-0.71,0.52c0.28-0.07,0.27-0.02-0.01,0.16c0.47-0.07,0.41-0.15,1.15-0.29
		c-0.52,0.47-0.21,0.37-0.65,0.59c0.51-0.19,0.52-0.16,0.03,0.06c-0.2,0.02,1.15-0.4,0.27-0.07c0.46-0.2,0.36-0.38,0.67-0.8
		c0.53-0.61-3.24,1.32-0.69,0.21c0.42-0.7,0.77-0.56,0.19-0.25c0.34-0.4,0.32-0.45-0.07-0.13c0.49-0.36,0.34-0.77-0.12-0.7
		c0.41-0.3,0.37-0.15,0.37-0.33c-0.39-0.17-0.73,0-1,0.5c0.43-0.21,0.53-0.3,0.31-0.26c0.38-0.3,0.76-0.59,0.01-0.41
		c-0.23-0.49-0.43-0.64,0.02-1.04c-0.18,0.02-0.25-0.05-0.21-0.22c-0.44,0.5-0.44,0.45,0.01-0.13c-0.33,0.09-0.61,0.26-0.84,0.53
		c0.01-0.38,0.47-0.39,0.59-0.55c-0.18,0.16-0.15,0.1,0.09-0.21c-0.13,0.06-0.33,0.29-0.67,0.27c0.21-0.31,0.51-0.57,0.62-0.87
		c-0.67,0.33,0.44-0.26-0.65,0.52c0.12-0.19,0.28-0.46,0.43-0.55c-0.41,0.28-0.46,0.26-0.16-0.07c0.04,0.04-0.58,0.5-0.69,0.53
		c0.1-0.12,0.33-0.8,0.31-0.79c-0.4,0.3-0.44,0.39-0.11,0.26c-0.23,0.03-0.28,0.3-0.41,0.46c0.59-0.85-0.29-0.27,0.08-0.85
		c-0.07,0.09-0.69,0.17-0.66,0.32c0.8-0.83-0.18-0.09-0.27,0.07c0.32-0.56-0.33-0.87-0.45-0.39c0.08-0.16,0.38-0.47,0.26-0.64
		c0.08-0.2-0.98,0.53-0.68,0.37c0.33-0.5,0.31-0.48-0.08,0.07c-0.03-0.41,0.07-0.59,0.29-0.52c-0.1-0.07-0.1-0.16,0.02-0.24
		c0.11-0.01-0.54,0.43-0.56,0.45c0.3-0.51,0.23-0.52-0.2-0.03c0.91-1.45,0.08,0.05-0.08-0.05c0.35-0.71-0.08-1.56-0.47-0.49
		c-0.06,0.04,0.19-1.11,0.19-1.15c-0.2,0.66-0.14,0.46-0.22,0.07c-0.61,0.65-0.52-0.07-1.28,0.54c0.08-0.49-1.75-0.83-2.03-0.9
		c1.44,0.19-1.07,1.14-0.46,0.32c-0.31-0.02-0.43,0.97-0.43,0.95c-0.2-0.41-0.26-0.41-0.18,0.01c-0.2-0.56-0.17,0.26-0.37-0.92
		c0.08,1.81,0.01,0.49-0.07,0.44c-0.06-0.06-0.49-0.4-0.06,0.38c-0.08-0.13,0.06,0.09,0.17,0.5c-1.12-2.38-0.19,0.83-0.59-0.43
		c0.06,1.02-1.92,0.99-1.97,1.02c-0.02,0.35,1.54,1.86,1.49,1.81c-0.5-0.64-0.02-0.04-0.02-0.04c-0.07-0.2-0.02-0.17,0.15,0.08
		c0.11-0.66,0.05,0.3-0.3-0.49c0.66,0.69,0.12-0.49,0.74,0.47c-0.82-1.38,0.69,1.09-0.23-0.92
		C285.89,72.5,284.58,70.98,285.58,71.99z"/>
	<path class="st3" d="M258.27,77.97c-0.08,0.17-0.46-0.41-1.17-0.55c0.21,0.07,0.23,0.08,0.06,0.01c0.49,0.18,0.52,0.16,0.1-0.06
		c0.62,0.13,0.15,0.14,0.85,0.26c-0.78,0.19,0.15-0.39-0.53-0.44c0.22-0.39-0.01,0.26,0.07-0.08c0,0,0.13-0.24,0.68-0.24
		c0.01,0.07-0.21-0.48-0.51-0.54c0.43-0.42,0.05-0.28,0.72-0.2c-0.23,0.02-0.38-0.34-0.4-0.28c0.56-0.02,0.13,0.02,0.65-0.01
		c0.05-0.29-0.1-0.45-0.47-0.49c0.42,0.24,0.41,0.23-0.03-0.04c0.2-0.01,0.5,0.26,0.61,0.33c0-0.09,0.03-0.1,0.1-0.01
		c0.1-0.13-0.39-0.66-0.43-0.7c0.8,0.55,0.2-0.05,0.03-0.19c0.5,0.71,1.9-0.53,1.64-1.07c0.31,0.66,0.35,0.11,0.44-0.27
		c0.2,0.62,0.39,0.29,0.16-0.75c0.17,0.83,0.24,0.69,0.27,0.93c-0.03-0.44-0.02-0.47,0.04-0.08c-0.02-0.19,0.07-1.06,0.25-0.02
		c0.03-0.33,0.26-0.54,0.01-0.95c-0.05,0.46,0.17,0.19,0.12,0.06c0.1,0.94,0.21-0.48,0.33,0.63c0.66-0.76,0.17-0.21,0.79-0.16
		c0.05-0.07,0.13-0.74,0.16-0.74c-0.34,1.11,0.09,0.35,0.07,0.11c-0.03,0.2-0.01,0.18,0.07-0.06c-0.11,0.45-0.09,0.49,0.05,0.12
		c-0.04,0.13-0.13,0.5-0.01,0.62c-0.06,0.01,0.19-0.67,0.2-0.7c-0.06,0.29-0.1,0.58-0.1,0.88c0.11-0.25,0.14-0.22,0.08,0.11
		c0.23-0.45,0.09-0.34,0.47-1.05c-0.04,0.74,0.07,0.37-0.06,0.87c0.19-0.5,0.2-0.49,0.05,0.02c-0.09,0.16,0.44-1.13,0.12-0.24
		c0.18-0.55,0.02-0.44-0.05-1.03c-0.04-0.87-1.43,4.4-0.28,0.65c-0.18-0.9,0.1-0.87-0.03-0.3c-0.04-0.52-0.07-0.53-0.11-0.03
		c0.07-0.59-0.24-0.79-0.46-0.37c0.19-0.29,0.2-0.43,0.03-0.44c-0.07,0.33-0.08,0.31-0.03-0.06c-0.34,0.24-0.41,0.61-0.23,1.1
		c0.1-0.47,0.1-0.61,0.01-0.41c0.03-0.7,0.14-0.61-0.24-0.27c-0.42-0.14-0.63-0.11-0.66-0.69c-0.07,0.15-0.16,0.16-0.25,0.03
		c0.12,0.65,0.09,0.62-0.09-0.08c-0.1,0.33-0.11,0.66-0.03,1c-0.29-0.26-0.05-0.6-0.1-0.8c0.03,0.24,0,0.17-0.1-0.18
		c-0.02,0.17,0.08,0.41-0.12,0.7c-0.12-0.35-0.16-0.75-0.35-1.01c-0.08,0.76,0-0.56,0.08,0.82c-0.09-0.21-0.22-0.48-0.21-0.67
		c0.02,0.49-0.02,0.51-0.12,0.08c0.04,0,0.12,0.74,0.09,0.85c-0.05-0.16-0.46-0.69-0.46-0.68c0.07,0.5,0.12,0.58,0.15,0.23
		c-0.08,0.24,0.1,0.37,0.18,0.59c-0.41-0.99-0.29,0.13-0.6-0.51c0.07,0.18-0.23,0.58,0,0.71c-0.36-1.09-0.13,0.09-0.04,0.24
		c-0.32-0.53-0.81-0.19-0.44,0.17c-0.12-0.17-0.23-0.5-0.43-0.53c-0.12-0.14,0.13,1.04,0.1,0.74c-0.32-0.51-0.3-0.48,0.04,0.1
		c-0.39-0.16-0.51-0.32-0.35-0.48c-0.11,0.03-0.17-0.01-0.2-0.13c0.02-0.07,0.2,0.62,0.22,0.66c-0.35-0.48-0.37-0.43-0.07,0.15
		c-0.98-1.41,0.07-0.04-0.07,0.04c-0.56-0.67-1.32-0.48-0.58,0.17c-0.36-0.14-0.58-0.51-0.92-0.69c0.48,0.41,0.43,0.33,0,0.21
		c0.42,0.8-0.24,0.27,0.11,1.2c-1.27-0.88-0.59,0.88-0.59,0.72c-0.28-0.1-0.69,0.13-0.91,0.23c0.9-0.97,0.6,1.27,0.09,0.44
		c0.58-0.73,0.08,1.37,0.05,0.31c0.86,0.41,0.07,0.19,0.57,0.42c-0.45-0.08-0.47-0.04-0.08,0.12c-0.51-0.15,0.03,0.19-0.96-0.24
		c1.44,0.77,0.45,0.24,0.34,0.26c-0.02,0-0.75,0.06,0.28,0.23c-0.22-0.02,0.29,0.08,0.51,0.15c-2.63-0.55,0.61,0.55-0.67,0.13
		c0.89,0.49-0.4,1.58-0.41,1.61c0.27,0.21,2.38,0.19,2.34,0.19c-0.76-0.12-0.08-0.06-0.05-0.02c-0.19-0.07-0.14-0.08,0.16-0.04
		c-0.52-0.57,0.36,0.18-0.56-0.11c0.98,0.01-0.31-0.34,0.84-0.17c-1.67-0.32,1.41,0.22-0.86-0.37
		C258.87,78.08,256.82,78.01,258.27,77.97z"/>
	<path class="st3" d="M260.52,84.01c0.01-0.17,0.57,0.18,1.29,0.02c-0.22,0.02-0.24,0.03-0.06,0.01c-0.52,0.04-0.54,0.07-0.07,0.09
		c-0.61,0.13-0.2-0.05-0.88,0.11c0.69-0.5-0.03,0.4,0.66,0.15c-0.11,0.59-0.11-0.31-0.03,0.09c0-0.02-0.01,0.23-0.49,0.5
		c0.38-0.06,0.42-0.05,0.12,0.01c0.48-0.21-0.07,0.39,0.59,0.16c-0.14,0.57,0.11,0.2-0.49,0.54c0.16-0.16,0.51,0.03,0.49-0.02
		c-0.24,0.21-0.23,0.28-0.44,0.3c0.73-0.21-0.09,0.14-0.06,0.11c0.15,0.26,0.37,0.27,0.67,0.05c-0.47,0.11-0.46,0.11,0.05,0
		c-0.16,0.15-0.53,0.14-0.67,0.17c0.07,0.06,0.05,0.09-0.06,0.08c0.03,0.2,0.75,0.18,0.8,0.17c-0.96,0.22-0.1,0.17,0.12,0.13
		c-0.83-0.05-0.7,2.09,0.19,1.89c-1.2,0.28,0.95,0.19-0.35,0.52c0.99,0.09-0.27,0.46,1.29,0.1c-0.83,0.18-0.68,0.23-0.93,0.28
		c0.45-0.04,0.48-0.03,0.09,0.03c0.19-0.03,1.05-0.02,0.04,0.24c0.26,0.06,0.6,0.12,0.94-0.1c-0.48,0.03-0.16,0.16-0.05,0.11
		c-0.95,0.24,0.27,0.05-0.4,0.21c0.03-0.04,0.72-0.08-0.18,0.19c0.9,0.45,0.24,0.03,0.34,0.65c0.08,0.02,0.73-0.13,0.74-0.11
		c-1.15,0.11-0.3,0.18-0.08,0.09c-0.2,0.04-0.17,0.05,0.08,0.03c-0.45,0.07-0.49,0.1-0.1,0.08c-0.14,0.02-0.51,0.06-0.58,0.21
		c-0.02-0.03,0.69-0.09,0.72-0.1c-0.29,0.05-0.57,0.14-0.85,0.25c0.28-0.01,0.25,0.03-0.07,0.1c0.5,0.02,0.35-0.04,1.14-0.05
		c-0.7,0.27-0.31,0.2-0.82,0.31c0.52-0.07,0.52-0.05,0,0.05c-0.17-0.01,1.18-0.15,0.26-0.02c0.64-0.11,0.35-0.15,0.92-0.45
		c0.78-0.36-5.63,0.85-0.7,0.06c0.87-0.54,0.77-0.24,0.27-0.14c0.47-0.21,0.47-0.24-0.01-0.09c0.56-0.16,0.66-0.43,0.19-0.45
		c0.34,0.07,0.48,0.03,0.42-0.12c-0.34,0.06-0.32,0.04,0.05-0.04c-0.36-0.17-0.72-0.11-1.1,0.17c0.48-0.07,0.61-0.11,0.39-0.12
		c0.65-0.18,0.68-0.02,0.21-0.25c0.03-0.33,0.03-0.49,0.55-0.61c-0.16-0.02-0.18-0.07-0.05-0.16c-0.95,0.17-0.19,0.04,0.08-0.07
		c-0.33-0.01-0.66,0.04-0.98,0.14c0.63-0.2,0.82-0.25,0.55-0.15c0.73-0.03-0.49,0.04,0.42-0.15c-0.21,0.01-0.32,0.16-0.68,0.01
		c0.33-0.13,0.71-0.18,1-0.35c-0.86,0.05,0.75-0.08-0.81,0.15c0.22-0.08,0.46-0.19,0.66-0.21c-0.48,0.06-0.51,0.04-0.07-0.07
		c0,0.03-0.73,0.14-0.85,0.13c0.21-0.05,0.61-0.34,0.73-0.35c-0.5,0.06-0.58,0.1-0.25,0.11c-0.07-0.07-0.52,0.13-0.6,0.15
		c1.08-0.34-0.13-0.2,0.6-0.43c-0.32,0.08-0.38-0.33-0.69-0.01c1.16-0.21-0.1-0.09-0.23-0.05c0.53-0.17,0.48-0.58-0.02-0.35
		c0.17-0.05,0.54-0.07,0.64-0.22c0.04-0.01-0.79-0.07-0.72-0.05c0.59-0.12,0.55-0.12-0.1,0c0.26-0.27,0.45-0.31,0.58-0.14
		c0.03-0.09,0.1-0.12,0.2-0.1c0.06,0.03-0.61-0.01-0.67,0c0.58-0.11,0.55-0.14-0.09-0.09c1.69-0.28,0,0.04,0-0.06
		c0.71-0.15,1.24-0.65,0.17-0.4c0.07,0.01,1-0.32,1.1-0.36c-0.63,0.16-0.47,0.22-0.15-0.06c-0.79-0.01-0.05-0.14-0.93-0.38
		c0.24-0.11,0.49-0.19,0.74-0.24c0.1-0.21-0.74-0.41-0.74-0.41c0.32-0.1,0.45-0.26,0.63-0.54c-0.4,1.15-1.17-0.42-0.29-0.19
		c0.02-0.08-0.71-0.08-0.79-0.09c0.21-0.01,0.22-0.04,0.03-0.06c0.29-0.03,0.25-0.04-0.12-0.01c0.43-0.13,0.44-0.17,0.02-0.1
		c0.21,0.02,0.25-0.02,0.12-0.13c0.56-0.12-0.7,0.1,0.84-0.11c-1.62,0.13-0.49,0.03-0.42-0.02c-0.05,0.02,0.81-0.36-0.34-0.03
		c0.27-0.09-0.49,0.09-0.52,0.1c2.62-0.67-0.78-0.14,0.56-0.33c-1.01,0.01-0.1-1.1-0.08-1.15c-0.42-0.06-2.17,0.35-2.31,0.4
		c0.27,0.21,0.39-0.11,0.05,0.01c0.21,0.02,0.16,0.05-0.14,0.09c0.69,0.39-0.42-0.05,0.57-0.05c-0.13,0.03-0.93,0.23-0.14,0.11
		c-0.86,0.22,0.57,0.08-0.61,0.29c1.74-0.25-1.49,0.33,0.93,0.04C259.89,84.12,261.89,83.48,260.52,84.01z"/>
	<path class="st7" d="M314.64,98c0,0,3.96,4.45,9.9,3.71c5.94-0.74,9.16-11.38,7.18-19.3c-1.98-7.92-7.92-8.91-16.08-1.48L314.64,98
		z"/>
	<path class="st8" d="M329.5,85.4c-1.04-5.05-2.26-4.81-5.17-5.08c-0.15-1.45-4.38,8.29-5.87,8.76c0.01,0.19,0.16,0.52-0.54,0.52
		c-0.02-0.04,0.79,0.88-0.1,0.09c1.49,1.44,0.91,1.74,1.01,2.94c0.22-0.14,0.25-0.07,0.09,0.21c1.18-0.84,0.3-2.2,0.19-2.95
		c1.02-3.63,9.08-14.73,8.48-1.94c-0.06,1.33-3.66,7.43-3.61,7.59c0-0.08-0.01-0.04-0.02,0.1c1.14-2.94-7.89-2.51-7.07-0.46
		c0.27,0.02,0.33,0.09,0.19,0.2c-0.3-0.92,7.6,1.64,8.87,0.92C329.67,94.19,330.07,87.58,329.5,85.4z"/>
	<path class="st4" d="M300.04,49.75c0,0,7.42,11.94,11.13,27.96s9.65,5.69,10.14-4.21c0.49-9.9-0.25-27.68-13.86-33.02
		c-13.61-5.34-33.4-7.78-43.3,0c-9.9,7.78-11.36,26.83-11.36,26.83s9.88,2.51,17.06-6.54c0,0,2.72,3.82,11.13,2.33
		C289.4,61.63,299.54,53.22,300.04,49.75z"/>
	<path class="st8" d="M268.38,77.44c0.08-0.23,0.21,1.67,0.79,1.76c-0.18-0.17-0.2-0.17-0.07-0.01c-0.45-0.4-0.51-0.28-0.18,0.35
		c-0.77-0.15,0.13-0.51-0.77-0.55c-1.03,1.37-2.1,9.38-1.76,11.02c-0.49-0.03-0.47-0.01,0.04,0.08c-1.6,3.28-2.04,11.5,0.44,16.42
		c-0.23-0.14-0.46-0.29-0.68-0.43c0.57,0.93,2.2,3.14,2.72,1.11c-0.83,1.93,3.34,0,2.66-0.24c-0.5,0.68,5.24-1.31,5.94-1.49
		c0.06-0.12,1.4,0.94,1.63-0.41c-0.23,1.29,0.65,0.29,0.74,0.81c0.19-0.2,0.66-1,1.01-1.45c0.43,0.46,1.29,0.88,1.17,0.09
		c-0.18-0.15-0.19-0.07-0.04,0.22c-0.02,0.1-1.33-1.31-1.73,0.18c-1.19-0.74-2.52-0.36-3.56,0.98c0.06-0.46,0-0.58-0.17-0.38
		c-0.23-0.77-0.42-0.39-1.04-0.01c-2.53,0.12-2.72-0.22-4.07,1.06c-0.63-0.08-0.02-0.66-0.11-0.8c-0.52-0.15-0.29,0.32-1.01,0.6
		c-0.29-0.38-0.37-0.83-0.58-1.01c-0.41,0.53,0.23-0.17-0.22,0.83c-0.13-0.21-0.31-0.59-0.26-0.76c-0.01,0.09,0,0.69-0.57,0.93
		c0.08-0.17-0.09-0.67,0.24-0.88c-0.49,0.41-0.29,0.25-0.68,0.77c0.57-0.9-0.73-4.92-1.27-6.02c0.63-0.3,0.59-0.02,0.8-0.39
		c-0.22-0.81-0.57-0.82-0.78-1.37c1.36,0.44,0.34-2.37,0.3-2.36c0.38-0.48,0.69-0.05,1.17-0.39c-0.55,0.04,0.67-13.06,1.06-13.19
		c-0.05-0.01,0.62,0.41,0.74,0.5c-0.4-0.43-0.02-1.29-0.45-1.23c-0.21,0.07,0.46,0.41-0.51-0.17c0.46-0.01,2.55-6.19,2.87-6.88
		c-0.08-0.52-2.01-0.98-2.17-0.92c-0.31,0.55,0.43,0.15,0.01,0.11c0.58-0.03-1.64,2.22-0.51,3.14
		C268.51,77.13,269.3,76.91,268.38,77.44z"/>
	<path class="st9" d="M283.72,108.37c-4.47,1.47-3.26,13.82,3.39,12.96C293.76,120.48,288.91,106.66,283.72,108.37z"/>
	<path class="st3" d="M287.51,79.66c0.01-0.17,0.57,0.18,1.29,0.02c-0.22,0.02-0.24,0.03-0.06,0.01c-0.52,0.04-0.54,0.07-0.07,0.08
		c-0.61,0.13-0.2-0.05-0.88,0.11c0.69-0.5-0.03,0.4,0.66,0.15c-0.11,0.59-0.11-0.31-0.03,0.09c0-0.02-0.01,0.23-0.49,0.5
		c0.38-0.06,0.42-0.05,0.12,0.01c0.48-0.21-0.07,0.39,0.59,0.16c-0.14,0.57,0.11,0.2-0.49,0.54c0.16-0.16,0.51,0.03,0.49-0.02
		c-0.24,0.21-0.23,0.28-0.44,0.3c0.73-0.21-0.09,0.14-0.06,0.11c0.15,0.26,0.37,0.27,0.67,0.05c-0.47,0.11-0.46,0.11,0.05,0
		c-0.16,0.15-0.53,0.14-0.67,0.17c0.07,0.06,0.05,0.09-0.06,0.08c0.03,0.2,0.75,0.18,0.8,0.17c-0.96,0.22-0.1,0.17,0.12,0.13
		c-0.83-0.05-0.7,2.09,0.19,1.89c-1.2,0.28,0.95,0.19-0.35,0.52c0.99,0.09-0.27,0.46,1.29,0.1c-0.83,0.18-0.68,0.23-0.93,0.28
		c0.45-0.04,0.48-0.03,0.09,0.03c0.19-0.03,1.05-0.02,0.04,0.24c0.26,0.06,0.6,0.12,0.94-0.1c-0.48,0.03-0.16,0.16-0.05,0.11
		c-0.95,0.24,0.27,0.05-0.4,0.21c0.03-0.04,0.72-0.08-0.18,0.19c0.9,0.45,0.24,0.03,0.34,0.65c0.08,0.02,0.73-0.13,0.74-0.11
		c-1.15,0.11-0.3,0.18-0.08,0.09c-0.2,0.04-0.17,0.05,0.08,0.03c-0.45,0.07-0.49,0.1-0.1,0.08c-0.14,0.02-0.51,0.06-0.58,0.21
		c-0.02-0.03,0.69-0.09,0.72-0.1c-0.29,0.05-0.57,0.14-0.85,0.25c0.28-0.01,0.25,0.03-0.07,0.1c0.5,0.02,0.35-0.04,1.14-0.05
		c-0.69,0.27-0.31,0.2-0.82,0.31c0.52-0.07,0.52-0.05,0,0.05c-0.17-0.01,1.18-0.15,0.26-0.02c0.64-0.11,0.35-0.15,0.92-0.45
		c0.78-0.36-5.64,0.85-0.7,0.06c0.87-0.54,0.77-0.24,0.27-0.14c0.47-0.21,0.47-0.24-0.01-0.09c0.56-0.16,0.66-0.43,0.19-0.45
		c0.34,0.07,0.48,0.03,0.42-0.12c-0.34,0.06-0.32,0.04,0.05-0.04c-0.36-0.17-0.72-0.11-1.1,0.17c0.48-0.07,0.61-0.11,0.39-0.12
		c0.65-0.18,0.68-0.02,0.21-0.25c0.03-0.33,0.03-0.49,0.55-0.61c-0.16-0.02-0.18-0.07-0.05-0.16c-0.95,0.17-0.19,0.04,0.08-0.07
		c-0.33-0.01-0.66,0.04-0.98,0.14c0.63-0.2,0.82-0.25,0.55-0.15c0.73-0.03-0.5,0.04,0.42-0.15c-0.21,0.01-0.32,0.16-0.68,0.01
		c0.33-0.13,0.71-0.18,1-0.35c-0.86,0.05,0.75-0.08-0.81,0.14c0.22-0.08,0.46-0.19,0.66-0.21c-0.48,0.06-0.51,0.04-0.07-0.07
		c0,0.03-0.73,0.14-0.85,0.13c0.21-0.05,0.61-0.34,0.73-0.35c-0.5,0.06-0.58,0.1-0.25,0.11c-0.07-0.07-0.52,0.13-0.6,0.15
		c1.08-0.34-0.13-0.2,0.6-0.43c-0.32,0.08-0.38-0.33-0.69-0.01c1.16-0.21-0.1-0.09-0.23-0.05c0.53-0.17,0.48-0.58-0.02-0.35
		c0.17-0.05,0.54-0.07,0.64-0.22c0.04-0.01-0.79-0.07-0.72-0.05c0.59-0.12,0.55-0.12-0.1,0c0.26-0.27,0.45-0.31,0.58-0.14
		c0.03-0.09,0.1-0.12,0.2-0.1c0.06,0.03-0.61-0.01-0.67,0c0.58-0.11,0.55-0.14-0.09-0.09c1.69-0.28,0,0.04,0-0.06
		c0.71-0.15,1.24-0.65,0.17-0.4c0.07,0.01,1-0.32,1.1-0.36c-0.63,0.16-0.47,0.22-0.15-0.06c-0.79-0.01-0.05-0.14-0.93-0.38
		c0.24-0.11,0.49-0.19,0.74-0.24c0.1-0.21-0.74-0.41-0.74-0.41c0.32-0.1,0.45-0.26,0.63-0.54c-0.39,1.15-1.17-0.42-0.29-0.19
		c0.02-0.08-0.71-0.08-0.79-0.09c0.21-0.01,0.22-0.03,0.03-0.06c0.29-0.03,0.25-0.04-0.12-0.01c0.43-0.13,0.44-0.17,0.02-0.1
		c0.21,0.02,0.25-0.02,0.12-0.13c0.56-0.12-0.7,0.1,0.84-0.11c-1.62,0.13-0.49,0.03-0.42-0.02c-0.05,0.02,0.81-0.36-0.34-0.03
		c0.27-0.09-0.49,0.09-0.52,0.1c2.62-0.67-0.78-0.14,0.56-0.33c-1.01,0.01-0.1-1.1-0.08-1.15c-0.42-0.06-2.17,0.35-2.31,0.4
		c0.27,0.21,0.39-0.11,0.05,0.01c0.21,0.02,0.16,0.05-0.14,0.09c0.69,0.39-0.42-0.05,0.57-0.05c-0.13,0.03-0.93,0.23-0.14,0.11
		c-0.86,0.22,0.57,0.08-0.61,0.29c1.74-0.25-1.49,0.33,0.93,0.04C286.88,79.77,288.88,79.14,287.51,79.66z"/>
	<path class="st7" d="M358.16,180.93c-7.2-1.57-11.6-1.74-16.17-9.15c-4.56-7.41-3.75-7.74-7.66-11.16
		c-3.91-3.42-8.8-7.01-6.03-9.61c2.77-2.61,6.52,1.3,9.29,3.75c2.77,2.44,12.55,4.73,12.55,4.73L358.16,180.93z"/>
	<path class="st7" d="M368.72,163.7c0,0-7.66-2.91-14.67-9.92c-7.01-7.01-15.56-18.93-17.47-22.34c-1.92-3.41-4.52-1.45-3.06,5.88
		c1.47,7.33,5.21,10.27,7.33,13.2c2.12,2.93,3.23,6.36,5.85,8.96c2.62,2.61-2.43,7.33,5.06,16.13c7.5,8.8,16.95,8.15,16.95,8.15
		V163.7z"/>
	<path class="st2" d="M428.89,152.62c3.27,19.34,0.2,37.15-25.87,42.82c-26.07,5.66-39.87-10.29-39.87-10.29s6.13-11.65,2.76-26.07
		c0,0,10.12,2.45,20.24-3.37c10.12-5.83,19.32-11.27,29.14-7.63C425.1,151.72,428.89,152.62,428.89,152.62z"/>
	<g>
		<path class="st6" d="M196.58,88.39c-0.15,0.51-0.15,1.01,0,1.49C196.69,89.32,196.73,88.77,196.58,88.39z"/>
		<path class="st6" d="M212.22,95.03c-0.26,0.06-0.51,0.11-0.75,0.14c-3.44-0.64-6.25-2.75-8.52-5.49c-2.02-3.21-3.6-7.05-5.3-9.38
			c-0.13-0.3-0.28-0.54-0.43-0.75c0.06,0.12,0.12,0.25,0.16,0.4c0,0,0,0,0,0c-0.06-0.14-0.11-0.27-0.17-0.4c0,0,0.01,0.01,0.01,0.01
			c-0.01-0.01-0.01-0.03-0.02-0.04c-0.19-0.46-0.37-0.92-0.54-1.36c0.13,0.37,0.24,0.75,0.35,1.12c-0.03-0.03-0.06-0.07-0.09-0.1
			c0.03,0.04,0.06,0.08,0.1,0.11c0.03,0.11,0.06,0.22,0.09,0.33c-0.05-0.06-0.1-0.12-0.15-0.18c-0.01-0.02,0.13,0.43,0.39,1.2
			c0.06,0.32,0.12,0.63,0.17,0.95c-0.09,1.97-0.8,4.44-0.93,5.12c0.36,0.58,0.26,2.12,0.01,3.23c-0.01-0.02-0.01-0.05-0.02-0.07
			c-0.15,0.78-0.41,1.58-0.46,1.93c-0.14,0.51-0.6-0.21-0.61-0.29c-0.31,0.51,0.4,1.81,0.12,2.25c-0.48-0.8-3.44,5.95-3.75,7.01
			c-0.22,0.23-0.21-0.56-0.3,0c-0.11-0.21-0.21-0.43-0.29-0.66c-0.01,0.3-0.1,0.31-0.26,0.04c0.4,0.58-3.15,3.89-3.57,4.52
			c11.88,0.23,15.28,5.89,18.31,14.34c0.19,0.97,0.38,1.79,0.58,2.38c0.59-0.16,1.18-0.33,1.77-0.49c-0.19-0.5-0.46-1.23-0.8-2.09
			c0.04-0.03,0.1-0.03,0.19,0c-0.69-4.02-1.63-6.12-1.88-9.49c0-0.64,0.03-1.28,0.07-1.92C208.08,105.61,207.03,97.41,212.22,95.03z
			 M207.26,118.92c0.03,0.13,0.07,0.26,0.09,0.39C207.28,119.13,207.26,119.01,207.26,118.92z"/>
	</g>
	<g>
		<path class="st6" d="M397.79,95.57c0.24-0.11,0.49-0.21,0.75-0.3c-3.07,0.6-5.44-0.51-7.28-2.49c-2.78-3.57-3.36-9.92-5.67-14.02
			c-0.11-0.57-0.21-1.11-0.29-1.6c0,0.34,0,0.68,0,1.02c-0.02-0.03-0.03-0.08-0.06-0.11c0,0.01,0,0.01,0,0.02
			c0.02,0.04,0.03,0.08,0.05,0.13c0,0.02,0,0.04,0,0.06c-0.02-0.07-0.03-0.13-0.05-0.2c-0.24-0.57-0.18,0.57,0.04,2.17
			c0,0.16-0.01,0.31-0.01,0.47c-0.33,1.59-0.96,3.36-1.07,3.94c0.32,0.51,0.24,1.87,0.03,2.83c-0.01-0.02-0.01-0.04-0.01-0.06
			c-0.11,0.71-0.31,1.44-0.35,1.68c-0.12,0.43-0.54-0.15-0.54-0.23c-0.24,0.39,0.47,1.52,0.19,1.95c-0.34-0.53-3.16,4.92-3.61,5.77
			c-0.21,0.14-0.35-0.71-0.62-0.7c0.28,0.65-3.19,1.7-4.4,2.51c2-0.7,10.58,5.88,10.52,5.82c1.46,1.53,3.35,4.66,4.1,7.92
			c0.02,0.45,0.05,0.89,0.09,1.31c0.05-0.01,0.1-0.02,0.15-0.02c0,0.01,0,0.02,0.01,0.03c0.4-0.06,0.81-0.12,1.21-0.19
			c0-0.01,0-0.02,0-0.03c0.05-0.01,0.1-0.01,0.14-0.02c-0.14-0.67-0.3-1.36-0.49-2.08c-0.12-0.81-0.16-1.57,0.12-1.81
			c0.01,0.22,0.01,0.44-0.01,0.66C391.05,109.96,392.41,98.23,397.79,95.57z"/>
		<path class="st6" d="M374.53,98.73c0.07-0.1,0.19-0.2,0.35-0.31C374.72,98.48,374.6,98.58,374.53,98.73z"/>
		<path class="st6" d="M384.19,86.14c-0.12,0.45-0.11,0.88,0.02,1.31C384.29,86.93,384.32,86.43,384.19,86.14z"/>
	</g>
	<g>
		<path class="st6" d="M383.16,217.41c-0.83,0.81-0.34,1.01,0.18,1.05C383.49,218.19,383.5,217.83,383.16,217.41z"/>
		<path class="st6" d="M393.63,233.75c-0.12-1.13-0.11-2.25,0.04-3.35c0.77-1,1.85-3.44,2.97-5.4c1.02-0.1,2.01-0.41,2.86-1.02
			c-0.61-0.86-1.22-1.72-1.83-2.58c-1.12,0.7-2.03,1.45-2.76,2.25c-1.6-0.07-3.04-0.8-4.33-1.92c-2.58-2.96-4.32-8.18-6.28-11.21
			c-0.16-0.5-0.42-0.82-0.66-1.11c0.01,0.04,0.02,0.1,0.04,0.14c-0.02-0.06-0.04-0.12-0.06-0.17c0.01,0.01,0.02,0.02,0.02,0.03
			c-0.01-0.04-0.03-0.07-0.05-0.1c-0.17-0.49-0.31-0.95-0.44-1.37c0.09,0.35,0.17,0.71,0.25,1.07c-0.04-0.04-0.07-0.08-0.11-0.11
			c0.04,0.08,0.09,0.15,0.13,0.22c0.02,0.1,0.05,0.21,0.07,0.31c-0.08-0.09-0.16-0.19-0.24-0.27c-0.27-0.52-0.06,0.74,0.45,2.61
			c-0.21,1.74-0.73,3.69-0.78,4.13c0.13,0.12,1.21,1.95,1.09,2.56c0.06-0.01-0.31,0.04-0.67,0.01c-0.26,0.48-0.92,0.72-0.82,0.69
			c0.28,0.51,0.29,0.68,0.03,0.5c0.17,0.2,0.75,0.33,0.78,0.91c-0.05,0.4-0.77-0.08-0.81-0.2c-0.24,0.44,0.9,1.78,0.75,2.04
			c-1.18-1.05-2.37,5.9-2.5,6.75c-0.27,0.26-0.83-0.71-0.84-0.7c-0.02,0.37-0.15,0.41-0.39,0.11c0.12,0.13-2.76,4.14-2.94,4.52
			c0.66-0.18,1.11,0.1,1.97-0.21c0.45-0.35,0.92-0.62,1.39-0.83c1.85-0.35,3.66-0.34,5.37,0c3.62,1.32,7.08,4.83,9.09,7.86
			c0.28,0.79,0.56,1.56,0.82,2.31c0.74-0.39,1.49-0.77,2.23-1.16c-0.49-0.91-1.13-1.97-1.89-3.06
			C394.77,236.52,394.06,235.24,393.63,233.75z"/>
	</g>
	<path class="st0" d="M311.53,248.3v-15.23h-44.49v15.23c0,0,3.56,4.28,22.25,4.28C307.97,252.58,311.53,248.3,311.53,248.3z"/>
	<circle class="st10" cx="289.28" cy="192.96" r="53.15"/>
	<circle class="st11" cx="289.28" cy="192.96" r="37.58"/>
	
		<ellipse transform="matrix(0.8695 -0.494 0.494 0.8695 -57.5592 168.0942)" class="st11" cx="289.28" cy="192.96" rx="24.87" ry="24.87"/>
	<g>
		<path class="st12" d="M334.16,195.84c-1.59,0-2.89-1.29-2.89-2.89c0-3.58-0.45-7.13-1.34-10.56c-0.4-1.54,0.53-3.12,2.07-3.52
			c1.55-0.4,3.12,0.53,3.52,2.07c1.01,3.9,1.52,7.94,1.52,12C337.04,194.55,335.75,195.84,334.16,195.84z"/>
	</g>
	<g>
		<path class="st12" d="M329.24,175.4c-1.05,0-2.06-0.57-2.57-1.57c-4.97-9.7-13.37-17-23.64-20.56c-1.51-0.52-2.3-2.17-1.78-3.67
			c0.52-1.51,2.16-2.3,3.67-1.78c11.68,4.05,21.23,12.35,26.88,23.38c0.73,1.42,0.17,3.16-1.25,3.88
			C330.14,175.3,329.69,175.4,329.24,175.4z"/>
	</g>
	<g>
		<path class="st2" d="M258.4,200.81c0,0,1.31-14.45,13.32-14.63c12.01-0.19,15.95,13.32,28.89-9.94c0,0,11.82,5.29,24.95,14.65
			c0,0-4.32,17.43-13.88,22.68c-9.57,5.25-19.26-3.94-24.64,12.57C287.05,226.14,268.53,214.88,258.4,200.81z"/>
		<path class="st4" d="M262.03,200.29c0,0,2.65-11.53,12.41-10.8c9.76,0.73,15.04,10.52,27.42-9.93c0,0,6.55,3,20.57,12.31
			c0,0-3.39,12.28-10.88,18.64c-7.49,6.36-20.49-6.14-25.58,10.54C285.97,221.05,268.26,208.41,262.03,200.29z"/>
		<path class="st2" d="M264.26,192.72c0,0,9.67,2.23,2.97,13.15l-6.46-5.56L264.26,192.72z"/>
		<path class="st2" d="M280.02,218.53c0,0,2.37-9.8,9.68-4.22l-3.11,8.31L280.02,218.53z"/>
		<path class="st2" d="M298.13,182.54c0,0,4.72,5.71,7.82-1.99l-4.96-3.1L298.13,182.54z"/>
		<path class="st2" d="M323.94,190.88l-2.36,6.17c0,0-7.07-3.1-2.11-8.31L323.94,190.88z"/>
		<path class="st2" d="M289.7,193.58c-6.59,2.77-11.92,8.19-6.33,12.9c5.58,4.72,12.78,4.59,18.12,2.85
			c5.34-1.74,8.18-9.31,3.47-13.9C300.24,190.85,292.88,192.25,289.7,193.58z"/>
		<g>
			<path class="st4" d="M297.16,207.62c-0.72,0-1.49-0.07-2.3-0.24c-0.44-0.09-0.72-0.52-0.64-0.95c0.09-0.44,0.52-0.73,0.95-0.64
				c3.4,0.68,5.95-0.46,6.72-1.94c0.5-0.97,0.23-2.03-0.76-2.97c-1.27-1.2-2.46-0.67-4.47,0.38c-1.84,0.97-3.93,2.06-6.25,0.81
				c-1.91-1.04-2.34-2.26-2.36-3.11c-0.03-1.25,0.79-2.46,2.33-3.39c3.25-1.98,5.41-0.72,6.09,0.22c0.26,0.36,0.18,0.87-0.18,1.13
				c-0.36,0.26-0.86,0.18-1.13-0.17c-0.13-0.16-1.25-1.43-3.94,0.21c-1,0.61-1.56,1.32-1.55,1.96c0.02,0.59,0.55,1.2,1.51,1.72
				c1.56,0.84,3.1,0.04,4.73-0.82c1.86-0.97,4.17-2.18,6.34-0.12c1.52,1.44,1.92,3.27,1.08,4.89
				C302.51,206.2,300.31,207.62,297.16,207.62z"/>
		</g>
		<g>
			<path class="st4" d="M302.04,207.97c-0.19,0-0.37-0.06-0.53-0.19c-5.07-4.33-12.32-11.8-12.4-11.87
				c-0.31-0.32-0.3-0.83,0.02-1.15c0.32-0.31,0.83-0.3,1.15,0.02c0.07,0.07,7.27,7.49,12.29,11.77c0.34,0.29,0.38,0.8,0.09,1.14
				C302.5,207.87,302.27,207.97,302.04,207.97z"/>
		</g>
		<g>
			<path class="st13" d="M253,196.76c-0.06,0-0.12,0-0.17-0.01c-0.74-0.1-1.26-0.77-1.17-1.51c0.02-0.16,2.22-16.2,15.79-16.44
				c3.74-0.06,6.7,1.02,9.3,1.98c6.21,2.29,9.96,3.67,19.2-15.22c0.33-0.67,1.14-0.95,1.81-0.62c0.67,0.33,0.95,1.14,0.62,1.81
				c-9.81,20.07-14.97,19.37-22.56,16.57c-2.49-0.92-5.08-1.87-8.31-1.81c-4.66,0.08-8.28,2.42-10.75,6.94
				c-1.92,3.52-2.41,7.1-2.41,7.14C254.25,196.26,253.67,196.76,253,196.76z"/>
		</g>
		<polygon class="st13" points="302.48,172.53 289.26,167.21 299.93,159.78 		"/>
	</g>
	<path class="st6" d="M232.44,145.41c-0.49-3.52-1.08-7.26-3.73-8.5c-4.91-2.29,0.37,4.95-0.04,3.68c-0.25-0.15-0.52-0.15-0.81-0.01
		c0.01,0,2.49,2.7,2.24,2.77c1,3.76,9.29,4.13,12.8,0.69c0.21-0.4,0.42,0.74,0.41,0.69c-0.05-0.39,0.12-0.54,0.52-0.46
		c-0.06-0.97,0.38-0.99,0.44-1.16c0.43-1.06,1.64-4.43,1.5-4.8c-0.38,0.33-0.47,0.21-0.26-0.34c-5.82,5.65-8.95,11.55-16.39-1.16
		c-4.71,2.78,0.11,11-0.99,14.59c-1.7,5.57-2.21,4.06-6.96,5.7c-3.37,1.16-4.08-2.5-5.66,2.88c-0.04,0.14,2.26,6.28,1.25,5.58
		c0.22-0.01,0.43,0.21,0.44,0.33c-0.3-0.41,3.95-4.13,2.19-5.85c0.79,0.68,0.23,0.2,0.1,0.09
		C229.56,167.35,233.05,148.17,232.44,145.41z"/>
	<path class="st6" d="M355.29,229.59c2.42-1.77,7.62-3.67,8.09-3.59c0,0.04,7.27-0.69,6.52-0.92c-0.23-0.12-0.21,0.05-0.11-0.03
		c0-0.01,0.05,0.01,0.1,0.03c-0.02-0.01-0.04-0.03-0.06-0.04c-0.7-0.41-0.27-1.62-0.81-1.75c0.28,0.08,0.37,0.27,0.26,0.59
		c-0.74-0.45-2.19-1.03-2.93-1.54c0.59-0.47-0.4-0.11,0.37-0.07c-5.28-2.81-11.11-9.32-3.42-13.8c0.34-0.31,0.02,0.77,0.05,0.68
		c0.1-0.37,0.33-0.51,0.7-0.42c0.44-2.29,4.73-1.99,7.23-2.95c-0.54-0.24-0.43-0.32,0.35-0.24c-9.7-4.71-18.64,13.31-6.57,18.07
		c-0.3-0.07-1.36-0.32,0.37,0.15c0.12,0.02-0.55-0.12-0.35-0.06c-6.83-2.59-23.59,9.86-15.26,18.37c-0.23-0.28-0.3-0.35-0.21-0.21
		c-0.25-0.31-0.22-0.23,0.08,0.24c-0.23-0.31-0.27-0.34-0.11-0.09c-0.8-1.03-4.58-2.15-6.44-2.58c-3.01-0.68-23.63,3.28-15.51,7.97
		c0.26-0.42,0.4-0.45,0.4-0.08c-0.62-0.29,0.13-2.25,0.1-1.35c2.77-11.57,19.81,3.67,24.8-0.45c1.71-1.42-1.5-7.79-1.48-9.22
		C351.53,232.46,352.94,231.33,355.29,229.59z"/>
	<path class="st6" d="M232.91,234.01c-1.15-8.8-7.09-7.46-10.4-9.51c0.31-0.01,0.57-0.16,0.77-0.44c0.01,0-4.26-0.82-4.25-0.83
		c0.22,0.12-3.28,0.52-4.54,0.92c1.61-1.52-1.15,0.59,0.55-0.57c-0.49,0.46-1.74,0.88-2.47,1.25c0.34-0.1,0.59-0.29,0.75-0.57
		c-0.31,0.25-0.65,0.44-1.03,0.56c0.91-0.62-1.71,0.8,0.74-0.49c-0.16,0.13-0.47,0.25-0.67,0.35c0.79-0.45,0.73-0.43-0.18,0.05
		c1.96-1.01,1-0.81,2.54-1.71c-0.2,0.01-0.5-0.18,0.15-0.34c-0.01,0.01-0.86-0.05-0.64-0.21c0.33,0.03,0.36-0.02,0.08-0.13
		c0.2-0.56,0.77-0.02,0.93,0.12c-0.16-0.24-0.06-0.3,0.29-0.18c-1.34-0.12,0.47-2.18,0.38-1.45c0.35-1.64-0.33-5.78-1.17-6.25
		c0.01,0.59-0.15,0.56-0.46-0.1c0.36,3.78,0.56,8.12-4.63,11.66c-0.02-0.01,0.17,0.07-0.07,0.05c2.59-0.51,10.91-0.71,14.56,1.66
		c11.48,7.49-2.77,12.51,0.62,19.07c0.55,1.06,1.06,0.69,3.49,0.52c1.57-0.11,3.72-2.1,5.17-2.51c4.37-1.25,10.1,0.03,13.55-0.55
		c0.14-0.09-12.51-9.02-15.83-2.69c0.37-0.5,0.27-0.45-0.3,0.06c0,0,0.46-0.43,0.4-0.37c-0.17,0.13-0.34,0.28-0.49,0.44
		c0.73-0.39-0.24-0.19-0.04,0.02c-0.22,0.19,0.74-0.75,0.28-0.32c0.92-0.78,0.23-0.28,0.53-0.53c-0.02,0.13-0.17,0.02-0.33,0.01
		C232.38,240.72,233.14,235.34,232.91,234.01z"/>
	<path class="st7" d="M223.29,183.87c0,0,4.26-1.83,9.99-1.43c5.73,0.4,7.33,0,10.4-0.8c3.07-0.8,0.8,7.06-4.67,7.06
		s-9.41,2.13,0.83,7.33c10.24,5.2,13.44,6.13,15.57,6.8c2.13,0.67,4.49,5.75-3.73,4.53c-3.6-0.53-6.89-1.69-6.89-1.69
		s3.96,2.36,7.69,3.56c3.73,1.2,6.74,5.73-2.27,5.73c-4.41,0-6.66-1.2-6.66-1.2s3.6,1.87,6.4,3.07c2.8,1.2,3.73,5.2-4.8,3.2
		c-8.53-2-9.86-3.07-9.86-3.07s5.6,4.4,7.2,5.33c1.6,0.93,4,4.93-5.46,1.6c-9.46-3.33-18.72-12.67-22.79-20.5
		c-4.07-7.83-4.59-12.15-4.59-12.15L223.29,183.87z"/>
	<path class="st2" d="M183.91,127.32c10.57-7.69,25.45,5.01,25.72,21.05c0.27,16.04,10.02,28.77,15.16,34.45
		c0,0-13,8.66-18.41,17.87c0,0-32.83-9.68-35.05-44.94C170.11,136.25,180.94,129.48,183.91,127.32z"/>
	<g>
		<path class="st3" d="M393.67,152.09l-0.05-0.01C393.64,152.09,393.65,152.09,393.67,152.09z"/>
		<path class="st3" d="M396.01,150.33c-0.01,0.02,0.01,0.05,0.03,0.08C396.04,150.38,396.04,150.35,396.01,150.33z"/>
		<path class="st3" d="M396.65,150.27c-0.02,0-0.03,0-0.04,0C396.64,150.29,396.66,150.3,396.65,150.27z"/>
		<path class="st3" d="M393.67,152.09l0.13,0.04C393.73,152.04,393.71,152.09,393.67,152.09z"/>
		<path class="st3" d="M390.41,154.11l0,0.05C390.41,154.14,390.41,154.13,390.41,154.11z"/>
		<path class="st3" d="M393.42,152.73c0.03,0.03,0.06,0.06,0.07,0.08C393.47,152.78,393.44,152.75,393.42,152.73z"/>
		<path class="st3" d="M417.75,142.62c0,0.02,0,0.04-0.01,0.05C417.76,142.64,417.76,142.62,417.75,142.62z"/>
		<path class="st3" d="M397.57,149.92C397.56,149.92,397.56,149.92,397.57,149.92C397.57,149.96,397.57,149.95,397.57,149.92z"/>
		<path class="st3" d="M403.86,146.1c-0.15-0.24,0.07-0.37-0.13-0.64C403.77,145.57,403.71,145.95,403.86,146.1z"/>
		<path class="st3" d="M389.63,153.19c0.01-0.01,0.02-0.02,0.03-0.02C389.64,153.17,389.63,153.17,389.63,153.19z"/>
		<path class="st3" d="M398.89,148.45c-0.04-0.04-0.07-0.06-0.1-0.09C398.81,148.38,398.84,148.41,398.89,148.45z"/>
		<path class="st3" d="M397.51,149.12l0.06,0C397.54,149.11,397.52,149.11,397.51,149.12z"/>
		<path class="st3" d="M415.14,142.57c0.02,0.09,0.02,0.18,0.03,0.27C415.16,142.63,415.29,142.56,415.14,142.57z"/>
		<path class="st3" d="M397.79,145.71l0.15-0.05C397.89,145.66,397.83,145.68,397.79,145.71z"/>
		<path class="st3" d="M409,142.77l0.03-0.04C409.02,142.73,409.01,142.74,409,142.77z"/>
		<path class="st3" d="M415.17,142.85L415.17,142.85L415.17,142.85z"/>
		<path class="st3" d="M391.89,152.05c-0.02-0.02-0.04-0.04-0.06-0.05C391.85,152.02,391.87,152.03,391.89,152.05z"/>
		<path class="st3" d="M391.38,152.33l-0.13-0.04C391.32,152.32,391.35,152.33,391.38,152.33z"/>
		<path class="st3" d="M396.08,147.68c0-0.01,0.01-0.01,0-0.02C396.07,147.58,396.07,147.62,396.08,147.68z"/>
		<path class="st3" d="M395.04,149.67c-0.02-0.06-0.04-0.11-0.05-0.15C394.95,149.52,394.92,149.54,395.04,149.67z"/>
		<path class="st3" d="M395.06,149.45c-0.07-0.02-0.08,0.01-0.08,0.06C395.03,149.51,395.07,149.51,395.06,149.45z"/>
		<path class="st3" d="M389.24,153.38l0,0.04C389.24,153.42,389.25,153.41,389.24,153.38z"/>
		<path class="st3" d="M389.23,153.52l0-0.09C389.22,153.43,389.2,153.44,389.23,153.52z"/>
		<path class="st3" d="M389.81,153.16l-0.05-0.1C389.77,153.09,389.78,153.12,389.81,153.16z"/>
		<path class="st3" d="M391.81,153.67c-0.04,0.09,0.1,0.14,0.13,0.2C391.92,153.75,391.92,153.72,391.81,153.67z"/>
		<path class="st3" d="M394.6,151.58l0.17,0.22C394.8,151.72,394.71,151.71,394.6,151.58z"/>
		<path class="st3" d="M399.86,147.51l-0.2-0.28C399.66,147.31,399.86,147.63,399.86,147.51z"/>
		<path class="st3" d="M401.73,146.22c0.08,0.15,0.18,0.23,0.16,0.06C401.83,146.28,401.74,146.17,401.73,146.22z"/>
	</g>
	<path class="st8" d="M238.22,212.04c1.79,0.92,3.25,1.56,4.39,1.58c-0.18,0,1.02-0.02,0.93,0.21c-0.03,0-0.04,0.01-0.03,0.03
		c-0.14-0.07,0.22-0.07,0.16-0.02c-0.05-0.09-0.03-0.12,0.07-0.09c-0.38-0.7-3.45-2.11-5.19-2.94c-0.17-0.08-3.33-2.9-4.5-2.38
		c-0.03,0.1-0.07,0.12-0.12,0.06c0.02,0.11,0,0.16-0.07,0.15c0.02,0.05,0.04,0.04,0.05-0.04
		C234.52,209.42,237.37,211.72,238.22,212.04z"/>
	<path class="st8" d="M241.07,204.68c1.24,0.4,2.8,1.26,3.21,1.18c-0.14,0.03,0.8,0.02,0.66,0.27c-0.03,0-0.04,0-0.03,0.02
		c-0.11-0.09,0.19-0.06,0.12,0c-0.03-0.08,0-0.11,0.07-0.08c-0.13-0.68-2.3-2.09-3.82-2.68c0.35,0.14-3.11-1.88-3.34-1.58
		c0.01,0.1-0.02,0.15-0.09,0.14c0.01,0.05,0.02,0.04,0.05-0.03C238.22,202.73,240.34,204.56,241.07,204.68z"/>
	<path class="st8" d="M233.23,216.12c0.17,0.04,0.77,0.23,0.8,0.03c-0.2,0.27,0.84,0.56,0.85,0.5c-0.05,0.07-0.05,0.07,0.01,0
		c-0.08,0.01-0.17,0.29-0.17,0.26c0.05-0.01,0.44-0.2,0.26,0.11c0.17,0.09-0.04-0.04,0.02,0.03c0.1-0.1,0.12-0.1,0.05,0
		c0.01-0.03,0.08-0.05,0.1-0.07c0.19-0.46-0.49-1.55-1.39-1.98c0.37,0.18-1.47-1.16-1.81-0.8c-0.01,0.02-0.16,0.22-0.14,0.23
		C231.6,214.83,233.13,216.13,233.23,216.12z"/>
	<g>
		<path class="st8" d="M353.97,176.92c0.01,0,0.01-0.01,0.02-0.01C353.97,176.91,353.97,176.91,353.97,176.92z"/>
		<path class="st8" d="M352.54,175.54l0.02,0.01C352.55,175.54,352.54,175.54,352.54,175.54z"/>
		<path class="st8" d="M349.89,172.34l0.02,0.02C349.9,172.35,349.89,172.34,349.89,172.34z"/>
		<path class="st8" d="M351.36,174.31c-0.01,0-0.02-0.01-0.03-0.01C351.34,174.31,351.35,174.32,351.36,174.31z"/>
		<path class="st8" d="M355.15,178.41l-0.01-0.04C355.13,178.38,355.13,178.39,355.15,178.41z"/>
		<path class="st8" d="M356.23,178.98C356.23,178.98,356.23,178.98,356.23,178.98C356.23,178.97,356.23,178.98,356.23,178.98z"/>
		<path class="st8" d="M355.9,178.62c-0.01,0-0.02,0-0.04-0.01C355.88,178.62,355.89,178.63,355.9,178.62z"/>
		<path class="st8" d="M355.85,178.61l0.02,0C355.86,178.61,355.85,178.6,355.85,178.61z"/>
		<path class="st8" d="M345.84,158.18c0-0.03-0.02-0.06-0.04-0.09L345.84,158.18z"/>
		<path class="st8" d="M348.19,169.05l0.01,0C348.2,169.04,348.19,169.04,348.19,169.05z"/>
		<path class="st8" d="M345.57,158.14l0.01-0.02C345.57,158.13,345.57,158.14,345.57,158.14z"/>
		<path class="st8" d="M354.57,178.11c-0.05,0-0.08-0.07-0.1-0.04C354.5,178.08,354.53,178.13,354.57,178.11z"/>
		<path class="st8" d="M346.85,168.62l-0.01-0.02C346.85,168.61,346.85,168.62,346.85,168.62z"/>
		<path class="st8" d="M347.54,165.09c0,0.01,0.01,0.03,0.01,0.04C347.56,165.11,347.55,165.1,347.54,165.09z"/>
		<path class="st8" d="M345.8,158.09l-0.02-0.05C345.78,158.06,345.79,158.08,345.8,158.09z"/>
		<path class="st8" d="M347.75,162.91c0,0.01,0,0.01,0,0.02C347.75,162.92,347.75,162.92,347.75,162.91z"/>
		<path class="st8" d="M351.46,174.44l0.01,0.02C351.47,174.45,351.47,174.45,351.46,174.44z"/>
		<path class="st8" d="M349.89,173.82c-0.01-0.03-0.05-0.04-0.08-0.04C349.82,173.8,349.84,173.81,349.89,173.82z"/>
		<path class="st8" d="M349.7,173.62l0,0.01L349.7,173.62z"/>
		<path class="st8" d="M350.55,174.73c0-0.01,0-0.02-0.01-0.03C350.55,174.71,350.55,174.72,350.55,174.73z"/>
		<path class="st8" d="M347.31,170.2c1.89,4.02,4.15,5.76,7,7.73c-0.19-0.13,1.9,1.15,1.82,1.21c-0.07,0.02,0.15,0.13,0.25,0.14
			c-0.08-0.16-0.03-0.17,0.14-0.03c-2.05-3.31-6.93-5-8.56-10.72c-0.39-1.36,0.58-9.66-2.22-10.52c-0.11,0.1-0.17,0.1-0.16,0
			C346.55,158.39,346.33,168.45,347.31,170.2z"/>
		<path class="st8" d="M349.47,173.38c-0.01,0-0.01,0-0.02-0.01C349.46,173.38,349.46,173.38,349.47,173.38z"/>
		<path class="st8" d="M349.1,173.01c0.03,0.02,0.02-0.01,0.02-0.03C349.11,172.98,349.1,172.99,349.1,173.01z"/>
		<path class="st8" d="M351.76,175.77c-0.01,0-0.02,0-0.02,0.01C351.75,175.78,351.75,175.78,351.76,175.77z"/>
		<path class="st8" d="M354.27,177.89c0,0,0-0.01-0.01-0.01C354.26,177.88,354.27,177.89,354.27,177.89z"/>
		<path class="st8" d="M354.17,177.72c-0.01-0.01-0.02-0.01-0.03-0.02C354.15,177.72,354.16,177.72,354.17,177.72z"/>
		<path class="st8" d="M351.17,175.22c-0.01-0.01-0.02-0.01-0.04-0.01C351.15,175.22,351.16,175.23,351.17,175.22z"/>
		<path class="st8" d="M354.31,177.93c-0.01-0.01-0.03-0.03-0.04-0.04C354.28,177.92,354.3,177.93,354.31,177.93z"/>
		<path class="st8" d="M352.7,176.53L352.7,176.53C352.65,176.52,352.67,176.53,352.7,176.53z"/>
		<path class="st8" d="M353.18,177.03c0.02-0.01,0.03-0.01,0.04-0.02C353.2,177,353.19,177,353.18,177.03z"/>
	</g>
	<path class="st8" d="M324.59,87.1c0.46-0.04-0.6,1.09-0.38,1.16c-0.53-0.85-2.04,1.67-2.19,1.68c-0.12-0.08-0.13-0.07-0.01,0.03
		c0.01-0.14-0.51-0.17-0.5-0.18c0-0.16,0.31,1.45,0.09,1.55c-0.05-0.06-0.07-0.07-0.08-0.02c-0.09-0.17,0.41,0.2,0.32,0.21
		c-0.04-0.19,0.02-0.22,0.17-0.09c-0.68-2.79,5.36-0.5,4.55-5c-0.51-2.82-5.14-1.72-5.18-1.79c0.17,0.05,0.21,0.11,0.12,0.19
		c0.15-0.04,0.24,0,0.26,0.1c0.07-0.03,0.05-0.06-0.08-0.08c0.14,0.01,0.13-0.05-0.01-0.17C322.39,84.91,325.48,87.13,324.59,87.1z"
		/>
	<g>
		<path class="st14" d="M264.37,222.22c0,7.72,0.03,18.02-8.63,21.36c7.34,1.49,12.37,7.63,13.67,14.87
			c-0.7-6.72,0.99-15.55,8.2-18.11C268.41,242.13,265.48,228.64,264.37,222.22z"/>
		<path class="st14" d="M264.39,223.37c3.87,6.21,3.04,18.52,13.05,17.02c-5.86,2.06-7.3,14.64-7.68,14.7
			c0.02-0.22,0.02-0.44,0.01-0.66c-0.59,0.49,0.23,3.28,0.24,3.95c-0.4,0.06-0.81,0.12-1.21,0.19c-0.47-3.72-2.68-7.51-4.34-9.25
			c0.06,0.07-9.94-7.62-10.87-5.51c0.58-0.84,5.07-2.09,4.75-2.82c0.27-0.01,0.41,0.84,0.62,0.7c0.45-0.85,3.28-6.3,3.61-5.77
			c0.28-0.43-0.43-1.56-0.19-1.95c0.01,0.08,0.43,0.66,0.54,0.23c0.06-0.41,0.63-2.3,0.33-2.99c-0.13,0.47-0.11,0.92,0.03,1.37
			c0.21-0.96,0.29-2.32-0.03-2.83c0.19-1,1.9-5.47,1.04-6.6c0.5,1.72,0.78,5.05-0.25,9.97c-0.43,2.03-2.59,10.26-6.23,10.27
			c0.37,0.01,0.25,0.04-0.37,0.08c-0.02-0.08,6.08,2.78,6.57,3.21c3.82,3.32,5.38,7.98,6.12,11.65c-0.5,0.08-1,0.15-1.5,0.23
			c-0.27-3.18-0.2-7.18,0.78-10.13c0.54-1.62,4.31-6.09,4.1-7.29c-0.08-0.43-3.87-2.26-4.23-3.02c-1.14-2.47-2.94-4.75-3.93-7.61
			C264.64,228.37,263.71,221.33,264.39,223.37z"/>
	</g>
	<path class="st3" d="M396.54,134.43c-0.26,0.13,0.93-1.28,0.64-1.74c-0.01,0.24,0,0.26,0.03,0.06c0,0.59,0.13,0.57,0.37-0.08
		c0.37,0.69-0.45,0.22,0.09,0.93c1.43-0.04,8.64-2.37,10.11-3.02c0.36,0.21-0.4,0.66,0.11-0.05c1.05,0.21,4.5,1.46,5.4,0.45
		c-0.2-0.13-0.45-0.18-0.66-0.32c0.01-0.05,0.62,0.26,0.67,0.27c-3.82-3.27-4.75-9.44-11.43-9.46c0.22-0.12,0.43-0.26,0.63-0.4
		c-0.94,0.11-3.44-0.46-2.67,1.23c-0.65-2.12-2.57,1.91-2,1.76c0.03-0.77-3.8,3.83-4.35,4.36c0,0.05-1.8,0.03-1.15,1.25
		c-0.66-1.22-0.7,0.27-1.13-0.03c-0.03,0.59,0.69,2.76-0.27,2.33c0.15,0.21,0.25,0.78,0.62,0.7c0.13-0.2,0.06-0.21-0.23-0.05
		c0.13,0.04,0.97-1.23,0.31-1.95c1.2,0.11,2.14-1.78,2.33-3c0.17,0.43,0.28,0.51,0.33,0.25c0.59,0.57,0.55,0.12,0.92-0.51
		c2.13-1.39,2.54-1.27,2.94-3.09c0.58-0.31,0.39,0.54,0.55,0.6c0.47-0.26,0.07-0.43,0.49-1.11c0.47,0.12,0.78,0.43,1.08,0.44
		c-0.02-0.66-0.07,0.29-0.35-0.78c0.24,0.11,0.53,0.29,0.55,0.45c0.14,0.08-0.14-0.76,0.09-1.05c0.14,0.46,0.34,0.88,0.68,0.34
		c-0.32,0.26-0.34,0.19-0.06-0.21c-0.26,0.2-0.31,0.11-0.16-0.26c0.13,0.71,4.87,2.25,5.77,2.48c-0.18,0.68-0.37,0.45-0.23,0.86
		c0.47,0.22,2.59,0.05,0.74,0.54c0.3,0.26,0.93,1.4,1.86,1.31c-0.44,0.18-1.07,0.07-1.52,0.04c0.73,0.07,1.04-0.06,0.23,0.05
		c0.35,0.14,0.7,0.28,1.04,0.44c-1.3-0.43-0.23,0.12,0.03,0.21c-0.75-0.28-0.05-0.05-0.59-0.29c-0.22-0.13,0.5,0.32,0.39,0.54
		c-0.36-0.21-0.67-0.47-0.93-0.77c0.07,0.19,0.08,0.38,0.02,0.58c-1.05-2.21-7.59,2.2-8.22,1.69c0.03,0.09,0.04-0.8,0.05-0.9
		c-0.18,0.54-1.13,0.77-0.85,1.07c0.21,0.16,0.03-0.63,0.15,0.51c-0.73-1.02-6.35,2.85-7.05,3.61c-0.13,0.55,1.64,1.48,1.82,1.49
		c-0.3-0.62,0.08-0.23,0.01-0.09c0.35,0.11,0.01-0.68,0.01-0.67c0.63,0.25,1.88-0.66,1.7-1.54
		C396.31,134.55,395.51,134.18,396.54,134.43z"/>
	<path class="st3" d="M399.07,137.89c0.16-0.12-0.11,0.88,0.39,1.35c-0.11-0.19-0.13-0.2-0.05-0.04c-0.27-0.46-0.32-0.44-0.17,0.05
		c-0.48-0.46,0.05-0.24-0.52-0.73c-0.25,0.01-2.52,3.67-2.45,4.06c-0.42-0.25-0.41-0.23,0.02,0.05c-0.06,0.02-0.57-0.3-0.61-0.32
		c-0.01,0.16-0.06,0.19-0.15,0.09c-0.25,0.38,0.1,1.34,0.14,1.38c0.45,0.86-5,3.93-2.31,5.46c-0.72-0.45-0.7-0.22-0.9-0.37
		c0.02,0.05,0.59,1.03-0.25,0.59c0.15,0.17,0.27,0.76,0.68,0.7c-0.29-0.36-0.32,0.13-0.17,0.14c-0.86-0.38,0.17,0.59-0.83,0.13
		c0,1.23-0.06,0.58-0.64,1.38c0.03,0.09,0.55,0.52,0.53,0.55c-0.72-0.95-0.37,0-0.16,0.06c-0.16-0.13-0.15-0.09,0,0.13
		c-0.22-0.12-0.18-0.26-0.73-0.21c0.06-0.11,0.49,0.57,0.49,0.57c-0.22-0.21-0.47-0.37-0.75-0.47c0.15,0.26,0.09,0.29-0.17,0.08
		c0.17,0.4,0.3,0.43,0.59,1.08c-0.62-0.28-0.48-0.04-0.81-0.37c0.33,0.44,0.31,0.46-0.06,0.07c-0.07-0.2,0.72,1,0.14,0.25
		c0.15,0.17,1.54,0.66,0.66-0.36c0.68,0.04,0.88,0.57,0.32,0.06c0.18,0.07,1.1-0.05,0.84-0.7c0.38,0.25,0.35,0.28,0.45,0.21
		c0.08-0.46-0.18-0.72-0.8-0.81c0.33,0.33,0.45,0.4,0.36,0.19c0.54,0.33,0.6,0.39,0.44-0.21c0.63-0.49,1.32-0.76,1.42-0.91
		c-0.16-0.31-0.41-0.54-0.74-0.68c0.35-0.17,0.53,0.34,0.7,0.4c-0.21-0.12-0.13-0.12,0.23,0c-0.06-0.08-0.4-0.33-0.42-0.62
		c0.35,0.09,0.75,0.37,1.03,0.31c-0.46-0.56,0.31,0.35-0.66-0.49c0.22,0.05,0.54,0.13,0.65,0.25c-0.37-0.34-0.36-0.4,0.04-0.2
		c-0.04,0.07-0.63-0.46-0.67-0.56c0.33,0.16,1.18,0.41,0.5-0.19c-0.05,0.22-0.1,0.07-0.45-0.07c0.94,0.33,0.26-0.45,0.88-0.22
		c-0.81-0.41,0.66-0.53-0.5-0.94c0.65,0.22,0.86-0.62,0.4-0.64c0.21,0.07,0.49,0.32,0.67,0.17c0.19,0.05-0.51-1.02-0.39-0.74
		c0.51,0.31,0.49,0.29-0.07-0.08c0.17,0.06,0.65,0.32,0.79,0.26c0,0.15-0.42-0.6-0.42-0.6c0.51,0.31,0.53,0.23,0.05-0.24
		c1.39,1-0.06,0.09,0.07-0.1c0.7,0.39,1.58-0.04,0.59-0.56c-0.04-0.12,1.1,0.35,1.12,0.35c-0.63-0.31-0.41-0.22-0.03-0.24
		c-0.36-0.53,0.04-0.76-0.11-1.47c1.19,0.72,1.3-2.08,1.27-1.99c0.69-0.28,1-0.39,0.52-0.94c0.4,0.22,0.46,0.17,0.16-0.14
		c0.5,0.39-0.03-0.37,0.81,0.57c-1.11-1.55-0.23-0.41-0.17-0.42c0.11,0.03,0.62,0.11-0.11-0.37c0.11,0.06-0.04,0.01-0.38-0.37
		c2,1.46-0.01-0.84,0.76,0.09c-0.52-1.15,1.98-1.48,1.87-1.43c-0.01-0.4-1.26-1.92-1.31-1.95c-0.15,0.52,0.19,0.21-0.01,0.07
		c0.02,0.23-0.05,0.21-0.2-0.05c-0.25,0.72,0.04-0.33,0.23,0.54c-0.69-0.66-0.28,0.62-0.96-0.29c0.95,1.49-1.04-1.01,0.18,1.02
		C398.82,137.49,400.29,138.47,399.07,137.89z"/>
	<path class="st3" d="M193.26,134.48c-0.24-0.01,0.91-0.64,0.84-1.29c-0.06,0.22-0.06,0.24,0.01,0.07
		c-0.15,0.52-0.07,0.55,0.23,0.07c0.06,0.7-0.29,0.12-0.15,0.9c0.07,0.04,5.93-0.07,6.12-0.12c-0.15,0.46-0.13,0.45,0.05-0.03
		c0.41,0.51,6.58,6.9,7.15,6.7c-0.8,0.25-0.59,0.46-0.84,0.5c-0.04-0.02,1.11,1.57,1.4,0.91c-1.08-0.24,0.96,2.91,1.08,3.45
		c-1.15-0.35-0.23,0.35-0.06,0.22c-0.21,0-0.18,0.05,0.1,0.14c-0.15,0.04-0.43-0.01-0.65,0.46c-0.05-0.18,0.79,0.17,0.77,0.17
		c-1.12-0.11-0.44,0.4-0.91,0.46c0.29,0.2,0.7,0.29,1.23,0.61c-0.56,0.27-0.39,0.43-0.82,0.4c0.55,0.15,0.56,0.2,0.01,0.14
		c-0.21-0.16,1.21,0.37,0.28,0.14c0.14,0.02,1.54-0.8,0.16-1.05c0.42-0.47,1.07-0.22,0.26-0.24c0.29-0.15,0.51-1.81,0.49-1.76
		c-0.2-0.49-0.59-0.54-1.16-0.14c0.46,0.04,0.59,0,0.39-0.13c0.85-0.21,0.33-0.23,0.13-0.65c-0.04-1.78,0.51-1.8-0.9-2.39
		c0.05-0.47,0.63-0.15,0.77-0.25c-0.23,0.08-0.19,0,0.13-0.23c-0.06-0.01-0.61-0.06-0.8-0.26c0.32-0.28,0.76-0.41,0.87-0.69
		c-0.64-0.14,0.29,0.07-0.83,0.13c0.17-0.16,0.46-0.4,0.59-0.39c-0.52,0.02-0.58-0.07-0.17-0.26c0.05,0.13-0.82,0.12-0.9,0.09
		c0.39-0.19,0.88-0.78,0.07-0.7c0.13,0.26,0.09,0.14-0.3,0.39c0.56-0.43-0.95-2.95-2.19-3.24c0.5-0.33,0.46-0.33-0.12,0.02
		c0.2-0.27,0.54-0.49,0.49-0.69c-0.39-0.24-2.1,0.11-0.45-0.43c-0.55-0.64-0.09,0.95-0.8,0.1c0.77-0.73-0.25-1.9-0.77-1.06
		c0.03-0.54,0.4-0.54,0.48-1.07c-0.27,0.42-5.09-1.92-5.89-2.34c-0.56-0.16-2.98,2-2.54-0.07c-0.76,1.81-0.26,0.51-0.34,0.41
		c-0.14-0.15-0.53-0.4-0.32,0.34c0.01,0.03,0.09-0.31-0.01,0.53c-0.06-0.29-3.97-0.61-4.36-0.71c-0.33,0.27-0.27,2.28-0.25,2.34
		c0.53-0.21,0.01-0.29,0.06-0.04c0.17-0.18,0.23-0.12,0.19,0.17c0.67-0.26-0.24,0.08,0.22-0.56c0.13,0.65,1.32,0.86,1.53-0.07
		C193.13,134.74,192.57,133.47,193.26,134.48z"/>
	<path class="st3" d="M205.14,131.8c-0.09-0.2,0.81,0.25,1.39-0.12c-0.21,0.07-0.23,0.08-0.06,0.04c-0.51,0.15-0.51,0.21,0.01,0.18
		c-0.56,0.34-0.23-0.1-0.84,0.33c0.07-0.27,0.62,0.45,0.83,0.22c0.24,0.93,0.77,3.06,1.75,3.47c-0.44,0.22-0.42,0.22,0.05,0.01
		c-0.02,0.07-0.56,0.32-0.6,0.34c0.12,0.09,0.12,0.15-0.01,0.17c0.17,0.39,1.15,0.66,1.2,0.65c0.71,0.11,0.06,5.42,2.1,5.49
		c-0.84-0.05-0.72,0.13-0.96,0.1c0.03,0.02,0.98,0.64,0.03,0.55c0.2,0.09,0.55,0.56,0.89,0.39c-0.39-0.24-0.26,0.22-0.11,0.18
		c-0.89-0.1,0.29,0.53-0.76,0.31c0.11,0.37,0.14,1.78,0.09,1.84c-0.66-0.99-0.37-0.02-0.16,0.05c-0.14-0.15-0.15-0.1-0.01,0.13
		c-0.18-0.13-0.16-0.31-0.69-0.32c0.09-0.1,0.38,0.63,0.39,0.64c-0.18-0.24-0.39-0.45-0.64-0.61c0.1,0.27,0.05,0.28-0.16,0.02
		c0.09,0.38,0.25,0.52,0.28,1.18c-0.47-0.48-0.42-0.23-0.6-0.66c0.13,0.52,0.11,0.53-0.07,0.03c0-0.21,0.25,1.21,0.03,0.28
		c0.07,0.22,1.25,1.21,0.7-0.07c0.88,0.98,0.46,0.43,0.29,0.15c0.29,0.22,1.44-0.38,1.43-0.37c0.14-0.47-0.12-0.75-0.77-0.85
		c0.33,0.34,0.45,0.4,0.36,0.19c0.58,0.33,0.58,0.34,0.45-0.26c0.57-0.54,1.25-1.23,1.29-1.39c-0.24-0.28-0.54-0.42-0.92-0.43
		c0.3-0.32,0.61,0.15,0.8,0.13c-0.24-0.04-0.17-0.07,0.22-0.11c-0.08-0.06-0.5-0.2-0.62-0.47c0.38-0.08,0.83-0.01,1.07-0.19
		c-0.58-0.33,0.31,0.15-0.81-0.17c0.22-0.06,0.56-0.15,0.7-0.09c-0.49-0.15-0.51-0.22-0.06-0.23c-0.01,0.09-0.78-0.12-0.86-0.18
		c0.36-0.03,1.21-0.31,0.32-0.47c-0.05,0.16,0.05,0.11-0.42,0.2c0.96-0.24-0.02-0.56,0.6-0.75c-0.87,0.14,0.16-0.93-0.99-0.5
		c0.29-0.12,0.47-1.19,0.47-1.13c0.2-0.12-1.11-0.41-0.81-0.28c0.58-0.14,0.55-0.15-0.11-0.01c0.14-0.08,0.7-0.26,0.73-0.4
		c0.1,0.1-0.73-0.12-0.73-0.12c0.57-0.16,0.52-0.24-0.15-0.22c1.67-0.36,0.03,0.11-0.04-0.13c0.77-0.27,0.99-1.29-0.06-0.85
		c-0.13-0.05,0.95-0.65,0.98-0.67c-0.49,0.23-0.83-0.72-1.49-1.03c1.36-0.6-1.24-2.42-1.12-2.29c0-0.72,0.06-1.19-0.68-0.94
		c0.35-0.3,0.33-0.37-0.07-0.22c0.56-0.34-0.4-0.13,0.82-0.56c-1.79,0.38-0.51,0.07-0.47-0.02c0.07-0.12,0.24-0.56-0.4-0.04
		c0.07-0.06,0.07,0.01-0.47,0.24c0.29-0.21-0.82-2.74-0.94-3.1c-0.39-0.05-2.01,1.19-2.02,1.2c0.37,0.27,0.28-0.26,0.06,0.01
		c0.22-0.01,0.2,0.05-0.07,0.19c0.71,0.28-0.36-0.05,0.55-0.2c-0.71,0.62,0.56,0.33-0.41,0.88c1.5-0.72-1.04,0.75,1.02-0.06
		C204.69,132.01,205.97,130.73,205.14,131.8z"/>
	<path class="st3" d="M184.79,129.84c-0.3,0.08,0.92-1.09,0.66-1.72c-0.02,0.26-0.01,0.28,0.03,0.07c-0.04,0.62,0.07,0.62,0.34,0
		c0.28,0.77-0.38,0.19,0.04,1.02c2.34,0.52,5.91-1.79,11.03-0.58c-1.33-0.65-0.28,0.05-0.76-0.79c1.07,0.39,1.9,1.79,3.37,1.31
		c-0.35-0.24-0.68-0.5-0.99-0.78c3.24,1.08-1.04-1.66,1.61,0.35c-0.13-0.41-0.42-0.65-0.86-0.72c2.99,2.67,2.24-2.2,2.41-1.89
		c-0.7-0.33-1.1-0.96-1.87-1.21c1.12,0.16-0.07-0.23-0.33-0.23c0.2,0.39,0.17-0.3,0.29-0.27c-3.24-0.49-1.5-1.58-5.35-2.26
		c0.32-0.09,0.64-0.17,0.96-0.25c-1.2-0.14-2.66-1.27-2.98,0.37c0.81-2.36-2.89-0.21-2.33,0.05c0.62-1.22-4.32,2.08-4.77,2.38
		c0.05-1.15-0.53,0.27-0.45,0.26c-0.3-0.37-0.07-0.11-0.85-0.41c0.19-0.18,0.09,1.02,0.07,0.93c-0.31-1.34-0.68-0.17-0.96-0.67
		c-0.12,0.33-0.15,1.06-0.3,1.69c-0.52-0.36-0.75-0.17-0.87-0.59c-0.1,0.54-0.51,0.14-0.19,0.73c0.22,0.11,0.2,0.04-0.05-0.23
		c0,0.02,1.69,1.11,1.44-0.53c1.28,0.46,2.24,0,2.67-1.78c0.11,0.5,0.2,0.62,0.29,0.35c0.19,0.31,0.15,0.08,0.58,0.58
		c0.05,0.08,0.1-0.59,0.32-0.76c2.33-0.55,2.1-0.08,3.21-1.5c0.52,0.11,0.07,0.73,0.15,0.89c-0.04-0.27,0.03-0.21,0.23,0.19
		c0-0.01,0.28-0.69,0.55-0.8c0.19,0.42,0.18,0.92,0.36,1.18c0.42-0.68-0.31,0.38,0.26-0.9c0.08,0.26,0.16,0.63,0.06,0.79
		c0.07,0.23,0.41-0.72,0.81-0.88c-0.05,0.22,0.39,0.65,0.16,0.98c0.48-0.94-0.29,0.05,0.33-0.64c-0.27,0.16-0.28,0.06-0.01-0.29
		c0.05,0.1,0.13,0.15,0.24,0.13c0,0.68,0.04,0.62-0.12,0.74c-0.08,0.05,1.19-0.42,1.26-0.24c-1.85,0.53,0.41,0.15,0.68,0.06
		c-1.21,0.44,0.48,0.8,1.02,0.67c-0.5,0.02-1.17-0.11-1.61,0.05c1.33,0.04-0.06-0.22,2.56,0.55c-0.46-0.08-0.92-0.15-1.39-0.21
		c0.6,0.08,1.19,0.18,1.78,0.3c0.15,0.01-1.84-0.2-2.36-0.31c0.56,0.13,0.49,0.12-0.21-0.01c0.86,0.27,1.8,0.49,2.67,0.71
		c-1.26-0.19-3.28-1.22,0.58,0.31c-8.93-2.49-0.35-0.19-2.07-0.56c3.87,1.01,0.53,0.37-1.14-0.13c0.53,0.31,0.4,0.34-0.39,0.1
		c1.01,0.41,1.84,0.78,2.85,1.2c-1.24-0.81-3.5-1.44-4.88-2.04c0.79,0.35,1.58,0.72,2.38,1.06c-0.44-0.19-0.89-0.39-1.33-0.59
		c0.46,0.22,0.28,0.14-0.54-0.24c5.48,2.59-1.23-0.74,1.28,0.64c-0.21-0.02-0.39-0.1-0.56-0.25c1.08,0.58-0.17-0.07-0.13-0.05
		c0.58,0.33,0.58,0.33-0.02,0c0.34,0.24,0.69,0.47,1.04,0.69c-0.6-0.32-1.18-0.66-1.74-1.02c0.26,0.21,0.51,0.43,0.73,0.68
		c-0.3-0.2-0.6-0.41-0.89-0.62c0.24,0.15,0.34,0.34,0.32,0.56c-0.16-0.7-0.04-0.58-0.14,0.07c-0.79-1.36-1.59,0.18-1.83,0.22
		c-0.18,0.03-3.53,0.23-3.4,0.4c-0.01-0.02,0.08-0.72,0.11-0.98c-0.22,0.63-1.1,0.56-0.82,1c0.11,0.13,0.07-0.56,0.1,0.59
		c-0.37-0.79-5.89,1.36-6.56,1.64c-0.26,0.48,1.17,2.27,1.24,2.31c0.47-0.12-0.29-0.44,0.04-0.08c0.06-0.28,0.16-0.27,0.3,0.03
		c0.55-0.95-0.26,0.5-0.1-0.68c0.54,0.53,1.92,0.03,1.82-0.98C185,130.48,183.75,128.56,184.79,129.84z"/>
</g>
</svg>
