<?xml version="1.0" encoding="utf-8"?>
<!-- Generator: Adobe Illustrator 26.1.0, SVG Export Plug-In . SVG Version: 6.00 Build 0)  -->
<svg version="1.1" id="Layer_1" xmlns="http://www.w3.org/2000/svg" xmlns:xlink="http://www.w3.org/1999/xlink" x="0px" y="0px"
	 viewBox="0 0 1940.72 489.25" style="enable-background:new 0 0 1940.72 489.25;" xml:space="preserve">
<style type="text/css">
	.st0{opacity:0.75;fill:url(#SVGID_1_);enable-background:new    ;}
	.st1{opacity:0.1608;}
	.st2{fill:#32ACFF;}
	.st3{fill:#AFE2FF;}
	.st4{fill:#0A293D;}
</style>
<linearGradient id="SVGID_1_" gradientUnits="userSpaceOnUse" x1="876.7216" y1="-897.3961" x2="1039.6486" y2="546.8468" gradientTransform="matrix(1 0 0 1 0 116.2734)">
	<stop  offset="0.1838" style="stop-color:#90D2FF"/>
	<stop  offset="0.8849" style="stop-color:#FFFFFF"/>
</linearGradient>
<path class="st0" d="M1952.43,1259.97V-82.27H-16.18v222.76c0,0,95.29,178.61,346.17,60.1s566.8,20.11,614.24,200.65
	c47.44,180.55-23.98,468.73,106.77,536.17c121.42,62.64,210.62,215.18,214.79,322.56H1952.43z"/>
<g>
	<g class="st1">
		<g>
			<path class="st2" d="M1176.49,489.25c0,0,71.69-78.85,92.65-203.11c19.8-117.42-42.55-246.56-210.29-247.8
				c-189.1,0-135.05,152.06-224.55,152.06c-216.69-6.58-213.44,245.11-39.34,298.85H1176.49z"/>
		</g>
	</g>
	<g>
		<g>
			<path class="st2" d="M788.9,123.22v59.8h-66.79v-59.8c0-18.13,14.7-32.83,32.83-32.83h1.13C774.2,90.4,788.9,105.1,788.9,123.22z
				"/>
		</g>
	</g>
	<g>
		<g>
			<path class="st3" d="M1071.9,123.22v266.03H855.69v59.8c0,15.44-10.65,28.39-25.01,31.89c-2.51,0.62-5.13,0.94-7.82,0.94h-1.13
				c-2.69,0-5.31-0.32-7.82-0.94c-14.36-3.5-25.01-16.45-25.01-31.89V123.22c0-18.13-14.7-32.83-32.83-32.83h283.01
				C1057.21,90.4,1071.9,105.1,1071.9,123.22z"/>
		</g>
	</g>
	<g>
		<g>
			<path class="st2" d="M1138.69,389.25v59.8c0,18.14-14.7,32.83-32.83,32.83h-283c2.69,0,5.31-0.32,7.82-0.94
				c14.35-3.5,25.01-16.45,25.01-31.89v-59.8H1138.69z"/>
		</g>
	</g>
	<g>
		<g>
			<path class="st4" d="M792.28,186.41h-73.56v-63.19c0-19.97,16.24-36.21,36.21-36.21h1.13c19.97,0,36.21,16.24,36.21,36.21
				L792.28,186.41L792.28,186.41z M725.49,179.65h60.02v-56.42c0-16.24-13.21-29.44-29.44-29.44h-1.13
				c-16.24,0-29.44,13.21-29.44,29.44v56.42H725.49z"/>
		</g>
	</g>
	<g>
		<g>
			<path class="st4" d="M822.86,485.27h-1.13c-2.93,0-5.83-0.35-8.63-1.04c-16.24-3.96-27.59-18.43-27.59-35.17V123.22
				c0-16.24-13.21-29.44-29.44-29.44v-6.77h283.01c19.97,0,36.21,16.24,36.21,36.21v269.41H859.07v56.42
				c0,16.75-11.34,31.21-27.59,35.18C828.69,484.92,825.79,485.27,822.86,485.27z M777.13,93.78c9.17,6.58,15.15,17.32,15.15,29.44
				v325.83c0,13.62,9.22,25.38,22.43,28.6c2.27,0.56,4.63,0.84,7.01,0.84h1.13c2.38,0,4.74-0.28,7.01-0.84
				c13.21-3.22,22.43-14.99,22.43-28.6v-63.19h216.22V123.22c0-16.24-13.21-29.44-29.44-29.44H777.13z"/>
		</g>
	</g>
	<g>
		<g>
			<path class="st4" d="M1105.87,485.27H822.86v-6.77c2.38,0,4.74-0.28,7.01-0.84c13.21-3.22,22.43-14.99,22.43-28.6v-63.19h289.77
				v63.19C1142.08,469.02,1125.83,485.27,1105.87,485.27z M843.99,478.5h261.87c16.24,0,29.44-13.21,29.44-29.44v-56.42H859.07
				v56.42C859.07,461.04,853.26,471.87,843.99,478.5z"/>
		</g>
	</g>
	<g>
		<path class="st2" d="M1109.35,191.15c-0.32-0.52-0.58-1.12-0.78-1.8c-0.19-0.68-0.29-1.44-0.29-2.28c0-1.42,0.37-2.49,1.12-3.21
			c0.74-0.71,1.76-1.07,3.06-1.07H1135c0.19,0.52,0.4,1.12,0.63,1.8c0.23,0.68,0.34,1.41,0.34,2.19c0,1.43-0.36,2.51-1.07,3.26
			s-1.72,1.12-3.01,1.12L1109.35,191.15L1109.35,191.15z"/>
		<path class="st2" d="M1173.48,166.47c0,2.2-0.37,4.19-1.12,5.98c-0.75,1.78-1.75,3.29-3.01,4.52c-1.26,1.23-2.75,2.17-4.47,2.82
			c-1.72,0.65-3.58,0.97-5.59,0.97c-2.07,0-3.97-0.32-5.68-0.97c-1.72-0.65-3.22-1.59-4.52-2.82c-1.3-1.23-2.3-2.74-3.01-4.52
			s-1.07-3.77-1.07-5.98c0-2.2,0.36-4.18,1.07-5.93s1.72-3.24,3.01-4.47c1.3-1.23,2.8-2.17,4.52-2.82c1.72-0.65,3.61-0.97,5.68-0.97
			c2.01,0,3.87,0.32,5.59,0.97s3.21,1.59,4.47,2.82c1.26,1.23,2.27,2.72,3.01,4.47C1173.11,162.29,1173.48,164.27,1173.48,166.47z
			 M1153.27,166.47c0,2.4,0.57,4.23,1.7,5.49c1.13,1.26,2.57,1.89,4.32,1.89s3.19-0.63,4.32-1.89s1.7-3.09,1.7-5.49
			c0-2.33-0.57-4.13-1.7-5.39s-2.58-1.89-4.32-1.89c-1.75,0-3.19,0.63-4.32,1.89S1153.27,164.14,1153.27,166.47z M1194.08,152.28
			c1.68,0.26,3.08,0.7,4.18,1.31c1.1,0.62,1.65,1.47,1.65,2.57c0,1.3-0.62,2.82-1.85,4.57l-35.08,52.08
			c-1.69-0.13-3.09-0.55-4.23-1.26c-1.13-0.71-1.7-1.59-1.7-2.62c0-0.71,0.16-1.41,0.49-2.09c0.32-0.68,0.78-1.47,1.36-2.38
			L1194.08,152.28z M1211.77,198.63c0,2.2-0.36,4.19-1.07,5.98c-0.71,1.78-1.7,3.29-2.96,4.52c-1.26,1.23-2.77,2.17-4.52,2.82
			c-1.75,0.65-3.63,0.97-5.64,0.97s-3.89-0.32-5.64-0.97s-3.26-1.59-4.52-2.82c-1.26-1.23-2.27-2.74-3.01-4.52s-1.12-3.77-1.12-5.98
			c0-2.2,0.37-4.18,1.12-5.93c0.74-1.75,1.75-3.24,3.01-4.47s2.77-2.17,4.52-2.82c1.75-0.65,3.63-0.97,5.64-0.97
			s3.89,0.32,5.64,0.97s3.26,1.59,4.52,2.82c1.26,1.23,2.25,2.72,2.96,4.47C1211.41,194.45,1211.77,196.43,1211.77,198.63z
			 M1191.56,198.63c0,2.4,0.55,4.23,1.65,5.49c1.1,1.26,2.56,1.89,4.37,1.89c1.75,0,3.17-0.63,4.27-1.89s1.65-3.09,1.65-5.49
			c0-2.33-0.55-4.13-1.65-5.39s-2.53-1.89-4.27-1.89c-1.81,0-3.27,0.63-4.37,1.89C1192.11,194.5,1191.56,196.3,1191.56,198.63z"/>
	</g>
	<g>
		<path class="st2" d="M686.52,326.75c-0.23-0.37-0.42-0.81-0.56-1.3s-0.21-1.04-0.21-1.65c0-1.03,0.27-1.8,0.81-2.31
			s1.27-0.77,2.21-0.77H705c0.14,0.37,0.29,0.81,0.46,1.3c0.16,0.49,0.25,1.02,0.25,1.58c0,1.03-0.26,1.81-0.77,2.35
			s-1.24,0.81-2.17,0.81h-16.25V326.75z"/>
		<path class="st2" d="M732.73,308.97c0,1.59-0.27,3.02-0.81,4.31c-0.54,1.28-1.26,2.37-2.17,3.26s-1.98,1.56-3.22,2.03
			s-2.58,0.7-4.03,0.7c-1.49,0-2.86-0.23-4.1-0.7s-2.32-1.14-3.26-2.03c-0.93-0.89-1.66-1.97-2.17-3.26
			c-0.51-1.28-0.77-2.72-0.77-4.31s0.26-3.01,0.77-4.27c0.51-1.26,1.24-2.33,2.17-3.22s2.02-1.56,3.26-2.03s2.6-0.7,4.1-0.7
			c1.45,0,2.79,0.23,4.03,0.7c1.24,0.47,2.31,1.14,3.22,2.03c0.91,0.89,1.63,1.96,2.17,3.22
			C732.46,305.96,732.73,307.38,732.73,308.97z M718.17,308.97c0,1.73,0.41,3.05,1.23,3.96s1.86,1.37,3.12,1.37s2.3-0.46,3.12-1.37
			s1.23-2.23,1.23-3.96c0-1.68-0.41-2.98-1.23-3.89s-1.86-1.37-3.12-1.37s-2.3,0.46-3.12,1.37
			C718.57,305.99,718.17,307.29,718.17,308.97z M747.58,298.75c1.21,0.19,2.22,0.5,3.01,0.95c0.79,0.44,1.19,1.06,1.19,1.86
			c0,0.93-0.44,2.03-1.33,3.29l-25.28,37.53c-1.21-0.09-2.23-0.4-3.05-0.91s-1.23-1.14-1.23-1.89c0-0.51,0.12-1.02,0.35-1.51
			c0.23-0.49,0.56-1.06,0.98-1.72L747.58,298.75z M760.32,332.15c0,1.59-0.26,3.02-0.77,4.31c-0.51,1.28-1.23,2.37-2.14,3.26
			c-0.91,0.89-2,1.56-3.26,2.03s-2.61,0.7-4.06,0.7s-2.8-0.23-4.06-0.7s-2.35-1.14-3.26-2.03c-0.91-0.89-1.63-1.97-2.17-3.26
			c-0.54-1.28-0.81-2.72-0.81-4.31s0.27-3.01,0.81-4.27c0.54-1.26,1.26-2.33,2.17-3.22s2-1.56,3.26-2.03s2.61-0.7,4.06-0.7
			s2.8,0.23,4.06,0.7s2.35,1.14,3.26,2.03c0.91,0.89,1.62,1.96,2.14,3.22C760.06,329.14,760.32,330.56,760.32,332.15z
			 M745.76,332.15c0,1.73,0.4,3.05,1.19,3.96s1.84,1.37,3.15,1.37c1.26,0,2.29-0.46,3.08-1.37c0.79-0.91,1.19-2.23,1.19-3.96
			c0-1.68-0.4-2.98-1.19-3.89s-1.82-1.37-3.08-1.37c-1.31,0-2.36,0.45-3.15,1.37C746.15,329.17,745.76,330.47,745.76,332.15z"/>
	</g>
	<g>
		<path class="st2" d="M1106.84,289.78c-0.18-0.29-0.32-0.62-0.43-1c-0.11-0.38-0.16-0.8-0.16-1.26c0-0.79,0.21-1.38,0.62-1.78
			c0.41-0.39,0.98-0.59,1.69-0.59h12.48c0.11,0.29,0.22,0.62,0.35,1s0.19,0.78,0.19,1.21c0,0.79-0.2,1.39-0.59,1.8
			c-0.39,0.41-0.95,0.62-1.67,0.62L1106.84,289.78L1106.84,289.78z"/>
		<path class="st2" d="M1142.34,276.12c0,1.22-0.21,2.32-0.62,3.31s-0.97,1.82-1.67,2.5c-0.7,0.68-1.52,1.2-2.47,1.56
			s-1.98,0.54-3.09,0.54c-1.15,0-2.2-0.18-3.15-0.54c-0.95-0.36-1.78-0.88-2.5-1.56s-1.27-1.51-1.67-2.5s-0.59-2.09-0.59-3.31
			s0.2-2.31,0.59-3.28s0.95-1.79,1.67-2.47c0.72-0.68,1.55-1.2,2.5-1.56s2-0.54,3.15-0.54c1.11,0,2.14,0.18,3.09,0.54
			c0.95,0.36,1.78,0.88,2.47,1.56c0.7,0.68,1.25,1.51,1.67,2.47C1142.13,273.81,1142.34,274.9,1142.34,276.12z M1131.15,276.12
			c0,1.33,0.31,2.34,0.94,3.04c0.63,0.7,1.43,1.05,2.39,1.05s1.77-0.35,2.39-1.05c0.63-0.7,0.94-1.71,0.94-3.04
			c0-1.29-0.31-2.29-0.94-2.98c-0.63-0.7-1.43-1.05-2.39-1.05s-1.77,0.35-2.39,1.05C1131.46,273.83,1131.15,274.83,1131.15,276.12z
			 M1153.74,268.27c0.93,0.14,1.7,0.39,2.31,0.73c0.61,0.34,0.91,0.82,0.91,1.43c0,0.72-0.34,1.56-1.02,2.53l-19.42,28.83
			c-0.93-0.07-1.71-0.3-2.34-0.7c-0.63-0.39-0.94-0.88-0.94-1.45c0-0.39,0.09-0.78,0.27-1.16s0.43-0.82,0.75-1.32L1153.74,268.27z
			 M1163.53,293.92c0,1.22-0.2,2.32-0.59,3.31s-0.94,1.82-1.64,2.5c-0.7,0.68-1.53,1.2-2.5,1.56s-2.01,0.54-3.12,0.54
			s-2.15-0.18-3.12-0.54c-0.97-0.36-1.8-0.88-2.5-1.56s-1.26-1.51-1.67-2.5s-0.62-2.09-0.62-3.31s0.21-2.31,0.62-3.28
			s0.97-1.79,1.67-2.47c0.7-0.68,1.53-1.2,2.5-1.56s2.01-0.54,3.12-0.54s2.15,0.18,3.12,0.54c0.97,0.36,1.8,0.88,2.5,1.56
			s1.25,1.51,1.64,2.47C1163.33,291.61,1163.53,292.7,1163.53,293.92z M1152.34,293.92c0,1.33,0.3,2.34,0.91,3.04
			s1.42,1.05,2.42,1.05c0.97,0,1.76-0.35,2.37-1.05c0.61-0.7,0.91-1.71,0.91-3.04c0-1.29-0.31-2.29-0.91-2.99
			c-0.61-0.7-1.4-1.05-2.37-1.05c-1,0-1.81,0.35-2.42,1.05C1152.64,291.64,1152.34,292.63,1152.34,293.92z"/>
	</g>
	<g>
		<path class="st2" d="M860.01,218.41h19.6c5.26-16.57,15.14-30.84,29.65-42.79c18.17-14.82,38.73-22.23,61.68-22.23
			c8.29,0,16.97,1.2,26.06,3.59l-11.48,43.51c-2.07-0.48-4.15-0.87-6.22-1.2c-2.07-0.32-4.23-0.48-6.46-0.48
			c-14.34,0-25.98,4.7-34.91,14.11c-0.8,0.96-1.59,1.88-2.39,2.75c-0.8,0.88-1.52,1.79-2.15,2.75h39.21l-5.98,22.95H924.8
			c-0.16,1.28-0.28,2.47-0.36,3.59c-0.08,1.12-0.12,2.31-0.12,3.59s0,2.51,0,3.71c0,1.2,0.16,2.43,0.48,3.71h38.01l-5.98,22.71
			h-22.71c0.64,0.8,1.27,1.55,1.91,2.27c0.64,0.72,1.35,1.48,2.15,2.27c9.08,9.25,20.56,13.87,34.43,13.87
			c2.23,0,4.34-0.16,6.34-0.48c1.99-0.32,4.02-0.72,6.1-1.2l11.71,43.27c-9.41,2.39-17.85,3.59-25.34,3.59
			c-23.91,0-45.51-8.05-64.79-24.15c-13.07-11.15-22.08-24.3-27.02-39.45h-19.6v-22.71h15.54c-0.16-1.27-0.24-2.47-0.24-3.59
			c0-1.11,0-2.31,0-3.59c0-1.27,0-2.51,0-3.71s0.08-2.43,0.24-3.71h-15.54V218.41z"/>
	</g>
</g>
<g>
	<circle class="st3" cx="799.3" cy="36.52" r="16.34"/>
</g>
<g>
	
		<ellipse transform="matrix(0.7071 -0.7071 0.7071 0.7071 35.912 1006.4694)" class="st3" cx="1232.87" cy="459.89" rx="7.67" ry="7.67"/>
</g>
</svg>
